{
    "asset" : {
        "generator" : "Khronos glTF Blender I/O v1.1.46",
        "version" : "2.0"
    },
    "scene" : 0,
    "scenes" : [
        {
            "name" : "Scene",
            "nodes" : [
                0,
                1
            ]
        }
    ],
    "nodes" : [
        {
            "mesh" : 0,
            "name" : "Circle",
            "rotation" : [
                0,
                0.9953650832176208,
                0,
                0.096168152987957
            ],
            "translation" : [
                0,
                2.576028823852539,
                0
            ]
        },
        {
            "mesh" : 1,
            "name" : "Circle.001",
            "scale" : [
                0.9824095964431763,
                0.9824095964431763,
                0.9824095964431763
            ]
        }
    ],
    "materials" : [
        {
            "doubleSided" : true,
            "emissiveFactor" : [
                0,
                0,
                0
            ],
            "name" : "Material.001",
            "pbrMetallicRoughness" : {
                "baseColorFactor" : [
                    0.056545741856098175,
                    0.024794774129986763,
                    0.007703721057623625,
                    1
                ],
                "metallicFactor" : 0,
                "roughnessFactor" : 0.5
            }
        },
        {
            "doubleSided" : true,
            "emissiveFactor" : [
                0,
                0,
                0
            ],
            "name" : "Material",
            "pbrMetallicRoughness" : {
                "baseColorFactor" : [
                    1,
                    1,
                    1,
                    1
                ],
                "metallicFactor" : 0,
                "roughnessFactor" : 0.5
            }
        },
        {
            "doubleSided" : true,
            "emissiveFactor" : [
                0,
                0,
                0
            ],
            "name" : "Material.002",
            "pbrMetallicRoughness" : {
                "baseColorTexture" : {
                    "index" : 0,
                    "texCoord" : 0
                },
                "metallicFactor" : 0,
                "roughnessFactor" : 0.5
            }
        }
    ],
    "meshes" : [
        {
            "name" : "Circle",
            "primitives" : [
                {
                    "attributes" : {
                        "POSITION" : 0,
                        "NORMAL" : 1,
                        "TEXCOORD_0" : 2
                    },
                    "indices" : 3,
                    "material" : 0
                }
            ]
        },
        {
            "name" : "Circle.001",
            "primitives" : [
                {
                    "attributes" : {
                        "POSITION" : 4,
                        "NORMAL" : 5,
                        "TEXCOORD_0" : 6
                    },
                    "indices" : 7,
                    "material" : 1
                },
                {
                    "attributes" : {
                        "POSITION" : 8,
                        "NORMAL" : 9,
                        "TEXCOORD_0" : 10
                    },
                    "indices" : 11,
                    "material" : 2
                }
            ]
        }
    ],
    "textures" : [
        {
            "source" : 0
        }
    ],
    "images" : [
        {
            "mimeType" : "image/jpeg",
            "name" : "logomock",
            "uri" : "textures/logomock.jpg"
        }
    ],
    "accessors" : [
        {
            "bufferView" : 0,
            "componentType" : 5126,
            "count" : 20288,
            "max" : [
                1.0089774131774902,
                0.5693172216415405,
                1.0089774131774902
            ],
            "min" : [
                -1.0089774131774902,
                -1.5696059563197196e-08,
                -1.0089774131774902
            ],
            "type" : "VEC3"
        },
        {
            "bufferView" : 1,
            "componentType" : 5126,
            "count" : 20288,
            "type" : "VEC3"
        },
        {
            "bufferView" : 2,
            "componentType" : 5126,
            "count" : 20288,
            "type" : "VEC2"
        },
        {
            "bufferView" : 3,
            "componentType" : 5123,
            "count" : 120804,
            "type" : "SCALAR"
        },
        {
            "bufferView" : 4,
            "componentType" : 5126,
            "count" : 355,
            "max" : [
                0.9461395740509033,
                2.6983909606933594,
                0.9461395144462585
            ],
            "min" : [
                -0.9461395740509033,
                -0.02833014726638794,
                -0.9461395740509033
            ],
            "type" : "VEC3"
        },
        {
            "bufferView" : 5,
            "componentType" : 5126,
            "count" : 355,
            "type" : "VEC3"
        },
        {
            "bufferView" : 6,
            "componentType" : 5126,
            "count" : 355,
            "type" : "VEC2"
        },
        {
            "bufferView" : 7,
            "componentType" : 5123,
            "count" : 1854,
            "type" : "SCALAR"
        },
        {
            "bufferView" : 8,
            "componentType" : 5126,
            "count" : 10,
            "max" : [
                0.485090047121048,
                1.8897144794464111,
                -0.6762940287590027
            ],
            "min" : [
                -0.17034132778644562,
                1.22758948802948,
                -0.873140811920166
            ],
            "type" : "VEC3"
        },
        {
            "bufferView" : 9,
            "componentType" : 5126,
            "count" : 10,
            "type" : "VEC3"
        },
        {
            "bufferView" : 10,
            "componentType" : 5126,
            "count" : 10,
            "type" : "VEC2"
        },
        {
            "bufferView" : 11,
            "componentType" : 5123,
            "count" : 24,
            "type" : "SCALAR"
        }
    ],
    "bufferViews" : [
        {
            "buffer" : 0,
            "byteLength" : 243456,
            "byteOffset" : 0
        },
        {
            "buffer" : 0,
            "byteLength" : 243456,
            "byteOffset" : 243456
        },
        {
            "buffer" : 0,
            "byteLength" : 162304,
            "byteOffset" : 486912
        },
        {
            "buffer" : 0,
            "byteLength" : 241608,
            "byteOffset" : 649216
        },
        {
            "buffer" : 0,
            "byteLength" : 4260,
            "byteOffset" : 890824
        },
        {
            "buffer" : 0,
            "byteLength" : 4260,
            "byteOffset" : 895084
        },
        {
            "buffer" : 0,
            "byteLength" : 2840,
            "byteOffset" : 899344
        },
        {
            "buffer" : 0,
            "byteLength" : 3708,
            "byteOffset" : 902184
        },
        {
            "buffer" : 0,
            "byteLength" : 120,
            "byteOffset" : 905892
        },
        {
            "buffer" : 0,
            "byteLength" : 120,
            "byteOffset" : 906012
        },
        {
            "buffer" : 0,
            "byteLength" : 80,
            "byteOffset" : 906132
        },
        {
            "buffer" : 0,
            "byteLength" : 48,
            "byteOffset" : 906212
        }
    ],
    "buffers" : [
        {
            "byteLength" : 906260,
            "uri" : "coffee.bin"
        }
    ]
}
