{
    "asset" : {
        "generator" : "Khronos glTF Blender I/O v1.1.46",
        "version" : "2.0"
    },
    "scene" : 0,
    "scenes" : [
        {
            "extras" : {
                "glTF2ExportSettings" : {
                    "export_animations" : 0,
                    "export_apply" : 1,
                    "export_extras" : 1,
                    "export_format" : "GLTF_SEPARATE",
                    "export_lights" : 0,
                    "export_morph" : 0,
                    "export_selected" : 0,
                    "export_skins" : 0,
                    "export_tangents" : 1,
                    "export_texture_dir" : "textures"
                }
            },
            "name" : "Scene",
            "nodes" : [
                0,
                1,
                2,
                3
            ]
        }
    ],
    "nodes" : [
        {
            "name" : "Light",
            "rotation" : [
                0.16907575726509094,
                0.7558803558349609,
                -0.27217137813568115,
                0.570947527885437
            ],
            "translation" : [
                4.076245307922363,
                5.903861999511719,
                -1.0054539442062378
            ]
        },
        {
            "name" : "Camera",
            "rotation" : [
                0.483536034822464,
                0.33687159419059753,
                -0.20870360732078552,
                0.7804827094078064
            ],
            "translation" : [
                7.358891487121582,
                4.958309173583984,
                6.925790786743164
            ]
        },
        {
            "mesh" : 0,
            "name" : "Circle"
        },
        {
            "mesh" : 1,
            "name" : "Circle.001",
            "translation" : [
                0,
                -0.04530778527259827,
                0
            ]
        }
    ],
    "materials" : [
        {
            "doubleSided" : true,
            "emissiveFactor" : [
                0.5328623056411743,
                0.7092629671096802,
                0.6653549075126648
            ],
            "name" : "Material.002",
            "pbrMetallicRoughness" : {
                "baseColorFactor" : [
                    1,
                    0.9768454432487488,
                    0.9092715978622437,
                    1
                ],
                "metallicFactor" : 0.7886363863945007,
                "roughnessFactor" : 0.5
            }
        },
        {
            "doubleSided" : true,
            "emissiveFactor" : [
                0,
                0,
                0
            ],
            "name" : "Material.001",
            "pbrMetallicRoughness" : {
                "baseColorFactor" : [
                    0.800000011920929,
                    0.800000011920929,
                    0.800000011920929,
                    1
                ],
                "metallicFactor" : 1,
                "roughnessFactor" : 0.5
            }
        }
    ],
    "meshes" : [
        {
            "name" : "Circle",
            "primitives" : [
                {
                    "attributes" : {
                        "POSITION" : 0,
                        "NORMAL" : 1,
                        "TANGENT" : 2,
                        "TEXCOORD_0" : 3
                    },
                    "indices" : 4,
                    "material" : 0
                }
            ]
        },
        {
            "name" : "Circle.003",
            "primitives" : [
                {
                    "attributes" : {
                        "POSITION" : 5,
                        "NORMAL" : 6,
                        "TANGENT" : 7,
                        "TEXCOORD_0" : 8
                    },
                    "indices" : 9,
                    "material" : 1
                }
            ]
        }
    ],
    "accessors" : [
        {
            "bufferView" : 0,
            "componentType" : 5126,
            "count" : 10880,
            "max" : [
                0.9934724569320679,
                1.1943724155426025,
                0.9934725165367126
            ],
            "min" : [
                -0.9936482906341553,
                0.00011168589117005467,
                -0.9934726357460022
            ],
            "type" : "VEC3"
        },
        {
            "bufferView" : 1,
            "componentType" : 5126,
            "count" : 10880,
            "type" : "VEC3"
        },
        {
            "bufferView" : 2,
            "componentType" : 5126,
            "count" : 10880,
            "type" : "VEC4"
        },
        {
            "bufferView" : 3,
            "componentType" : 5126,
            "count" : 10880,
            "type" : "VEC2"
        },
        {
            "bufferView" : 4,
            "componentType" : 5123,
            "count" : 16320,
            "type" : "SCALAR"
        },
        {
            "bufferView" : 5,
            "componentType" : 5126,
            "count" : 4224,
            "max" : [
                0.9922794103622437,
                1.425579309463501,
                0.9932739734649658
            ],
            "min" : [
                -0.9942686557769775,
                0.9919987320899963,
                -0.9932740926742554
            ],
            "type" : "VEC3"
        },
        {
            "bufferView" : 6,
            "componentType" : 5126,
            "count" : 4224,
            "type" : "VEC3"
        },
        {
            "bufferView" : 7,
            "componentType" : 5126,
            "count" : 4224,
            "type" : "VEC4"
        },
        {
            "bufferView" : 8,
            "componentType" : 5126,
            "count" : 4224,
            "type" : "VEC2"
        },
        {
            "bufferView" : 9,
            "componentType" : 5123,
            "count" : 6336,
            "type" : "SCALAR"
        }
    ],
    "bufferViews" : [
        {
            "buffer" : 0,
            "byteLength" : 130560,
            "byteOffset" : 0
        },
        {
            "buffer" : 0,
            "byteLength" : 130560,
            "byteOffset" : 130560
        },
        {
            "buffer" : 0,
            "byteLength" : 174080,
            "byteOffset" : 261120
        },
        {
            "buffer" : 0,
            "byteLength" : 87040,
            "byteOffset" : 435200
        },
        {
            "buffer" : 0,
            "byteLength" : 32640,
            "byteOffset" : 522240
        },
        {
            "buffer" : 0,
            "byteLength" : 50688,
            "byteOffset" : 554880
        },
        {
            "buffer" : 0,
            "byteLength" : 50688,
            "byteOffset" : 605568
        },
        {
            "buffer" : 0,
            "byteLength" : 67584,
            "byteOffset" : 656256
        },
        {
            "buffer" : 0,
            "byteLength" : 33792,
            "byteOffset" : 723840
        },
        {
            "buffer" : 0,
            "byteLength" : 12672,
            "byteOffset" : 757632
        }
    ],
    "buffers" : [
        {
            "byteLength" : 770304,
            "uri" : "mockquative1.bin"
        }
    ]
}
