{
    "asset" : {
        "generator" : "Khronos glTF Blender I/O v1.1.46",
        "version" : "2.0"
    },
    "scene" : 0,
    "scenes" : [
        {
            "name" : "Scene",
            "nodes" : [
                0,
                1,
                2,
                3,
                4,
                5,
                6,
                7,
                8
            ]
        }
    ],
    "nodes" : [
        {
            "name" : "Light",
            "rotation" : [
                0.16907575726509094,
                0.7558803558349609,
                -0.27217137813568115,
                0.570947527885437
            ],
            "scale" : [
                11.861411094665527,
                11.861410140991211,
                11.86141300201416
            ],
            "translation" : [
                0.5846214294433594,
                3.748512029647827,
                -4.026736259460449
            ]
        },
        {
            "name" : "Camera",
            "rotation" : [
                0.483536034822464,
                0.33687159419059753,
                -0.20870360732078552,
                0.7804827094078064
            ],
            "translation" : [
                7.358891487121582,
                4.958309173583984,
                6.925790786743164
            ]
        },
        {
            "mesh" : 0,
            "name" : "Circle",
            "translation" : [
                4.222846508026123,
                -0.033476635813713074,
                -0.007876074872910976
            ]
        },
        {
            "name" : "Circle.001",
            "scale" : [
                0.5223227143287659,
                0.5223227143287659,
                0.5223227143287659
            ]
        },
        {
            "name" : "Light.001",
            "rotation" : [
                0.16907575726509094,
                0.7558803558349609,
                -0.27217137813568115,
                0.570947527885437
            ],
            "translation" : [
                1.5954413414001465,
                3.638657808303833,
                2.1904098987579346
            ]
        },
        {
            "mesh" : 1,
            "name" : "Circle.002",
            "scale" : [
                0.9454036951065063,
                0.9454036951065063,
                0.9454036951065063
            ],
            "translation" : [
                6.266862869262695,
                -0.0038927914574742317,
                -0.007876073010265827
            ]
        },
        {
            "name" : "Circle.003",
            "scale" : [
                0.4496052861213684,
                0.4496052861213684,
                0.4496052861213684
            ],
            "translation" : [
                0,
                -0.003590550972148776,
                0
            ]
        },
        {
            "mesh" : 2,
            "name" : "Circle.004",
            "scale" : [
                0.4298839271068573,
                0.3016667366027832,
                0.4298839271068573
            ],
            "translation" : [
                6.264016628265381,
                0.24528329074382782,
                0
            ]
        },
        {
            "mesh" : 3,
            "name" : "Circle.005",
            "scale" : [
                1,
                1.151438593864441,
                1
            ],
            "translation" : [
                1.8380117416381836,
                0.00048800185322761536,
                -0.007876303978264332
            ]
        }
    ],
    "meshes" : [
        {
            "name" : "Circle",
            "primitives" : [
                {
                    "attributes" : {
                        "POSITION" : 0,
                        "NORMAL" : 1,
                        "TEXCOORD_0" : 2
                    },
                    "indices" : 3
                }
            ]
        },
        {
            "name" : "Circle.002",
            "primitives" : [
                {
                    "attributes" : {
                        "POSITION" : 4,
                        "NORMAL" : 5,
                        "TEXCOORD_0" : 6
                    },
                    "indices" : 7
                }
            ]
        },
        {
            "name" : "Circle.004",
            "primitives" : [
                {
                    "attributes" : {
                        "POSITION" : 8,
                        "NORMAL" : 9,
                        "TANGENT" : 10,
                        "TEXCOORD_0" : 11
                    },
                    "indices" : 12
                }
            ]
        },
        {
            "name" : "Circle.005",
            "primitives" : [
                {
                    "attributes" : {
                        "POSITION" : 13,
                        "NORMAL" : 14,
                        "TEXCOORD_0" : 15
                    },
                    "indices" : 16
                }
            ]
        }
    ],
    "accessors" : [
        {
            "bufferView" : 0,
            "componentType" : 5126,
            "count" : 24392,
            "max" : [
                0.9932861924171448,
                1.4036871194839478,
                0.9932633638381958
            ],
            "min" : [
                -1.0009231567382812,
                0.0001852113928180188,
                -0.9932861924171448
            ],
            "type" : "VEC3"
        },
        {
            "bufferView" : 1,
            "componentType" : 5126,
            "count" : 24392,
            "type" : "VEC3"
        },
        {
            "bufferView" : 2,
            "componentType" : 5126,
            "count" : 24392,
            "type" : "VEC2"
        },
        {
            "bufferView" : 3,
            "componentType" : 5123,
            "count" : 145950,
            "type" : "SCALAR"
        },
        {
            "bufferView" : 4,
            "componentType" : 5126,
            "count" : 992,
            "max" : [
                0.3877215087413788,
                0.20000000298023224,
                0.38566073775291443
            ],
            "min" : [
                -0.3836003839969635,
                1.2365138912784346e-09,
                -0.3856610655784607
            ],
            "type" : "VEC3"
        },
        {
            "bufferView" : 5,
            "componentType" : 5126,
            "count" : 992,
            "type" : "VEC3"
        },
        {
            "bufferView" : 6,
            "componentType" : 5126,
            "count" : 992,
            "type" : "VEC2"
        },
        {
            "bufferView" : 7,
            "componentType" : 5123,
            "count" : 1620,
            "type" : "SCALAR"
        },
        {
            "bufferView" : 8,
            "componentType" : 5126,
            "count" : 44976,
            "max" : [
                1.3816865682601929,
                7.264296054840088,
                0.8363897800445557
            ],
            "min" : [
                -1.381685733795166,
                -0.19541479647159576,
                -0.8364977836608887
            ],
            "type" : "VEC3"
        },
        {
            "bufferView" : 9,
            "componentType" : 5126,
            "count" : 44976,
            "type" : "VEC3"
        },
        {
            "bufferView" : 10,
            "componentType" : 5126,
            "count" : 44976,
            "type" : "VEC4"
        },
        {
            "bufferView" : 11,
            "componentType" : 5126,
            "count" : 44976,
            "type" : "VEC2"
        },
        {
            "bufferView" : 12,
            "componentType" : 5123,
            "count" : 67584,
            "type" : "SCALAR"
        },
        {
            "bufferView" : 13,
            "componentType" : 5126,
            "count" : 52736,
            "max" : [
                0.5759751796722412,
                2.4726946353912354,
                0.5759752988815308
            ],
            "min" : [
                -0.5759753584861755,
                -0.05980731174349785,
                -0.5759751200675964
            ],
            "type" : "VEC3"
        },
        {
            "bufferView" : 14,
            "componentType" : 5126,
            "count" : 52736,
            "type" : "VEC3"
        },
        {
            "bufferView" : 15,
            "componentType" : 5126,
            "count" : 52736,
            "type" : "VEC2"
        },
        {
            "bufferView" : 16,
            "componentType" : 5123,
            "count" : 237606,
            "type" : "SCALAR"
        }
    ],
    "bufferViews" : [
        {
            "buffer" : 0,
            "byteLength" : 292704,
            "byteOffset" : 0
        },
        {
            "buffer" : 0,
            "byteLength" : 292704,
            "byteOffset" : 292704
        },
        {
            "buffer" : 0,
            "byteLength" : 195136,
            "byteOffset" : 585408
        },
        {
            "buffer" : 0,
            "byteLength" : 291900,
            "byteOffset" : 780544
        },
        {
            "buffer" : 0,
            "byteLength" : 11904,
            "byteOffset" : 1072444
        },
        {
            "buffer" : 0,
            "byteLength" : 11904,
            "byteOffset" : 1084348
        },
        {
            "buffer" : 0,
            "byteLength" : 7936,
            "byteOffset" : 1096252
        },
        {
            "buffer" : 0,
            "byteLength" : 3240,
            "byteOffset" : 1104188
        },
        {
            "buffer" : 0,
            "byteLength" : 539712,
            "byteOffset" : 1107428
        },
        {
            "buffer" : 0,
            "byteLength" : 539712,
            "byteOffset" : 1647140
        },
        {
            "buffer" : 0,
            "byteLength" : 719616,
            "byteOffset" : 2186852
        },
        {
            "buffer" : 0,
            "byteLength" : 359808,
            "byteOffset" : 2906468
        },
        {
            "buffer" : 0,
            "byteLength" : 135168,
            "byteOffset" : 3266276
        },
        {
            "buffer" : 0,
            "byteLength" : 632832,
            "byteOffset" : 3401444
        },
        {
            "buffer" : 0,
            "byteLength" : 632832,
            "byteOffset" : 4034276
        },
        {
            "buffer" : 0,
            "byteLength" : 421888,
            "byteOffset" : 4667108
        },
        {
            "buffer" : 0,
            "byteLength" : 475212,
            "byteOffset" : 5088996
        }
    ],
    "buffers" : [
        {
            "byteLength" : 5564208,
            "uri" : "mock1x.bin"
        }
    ]
}
