{
    "asset" : {
        "generator" : "Khronos glTF Blender I/O v1.1.46",
        "version" : "2.0"
    },
    "scene" : 0,
    "scenes" : [
        {
            "name" : "Scene",
            "nodes" : [
                0,
                1
            ]
        }
    ],
    "nodes" : [
        {
            "mesh" : 0,
            "name" : "Circle",
            "translation" : [
                0,
                2.501420259475708,
                0
            ]
        },
        {
            "mesh" : 1,
            "name" : "Circle.001"
        }
    ],
    "materials" : [
        {
            "doubleSided" : true,
            "emissiveFactor" : [
                0,
                0,
                0
            ],
            "name" : "Material.001",
            "pbrMetallicRoughness" : {
                "baseColorFactor" : [
                    0.056545741856098175,
                    0.024794774129986763,
                    0.007703721057623625,
                    1
                ],
                "metallicFactor" : 0,
                "roughnessFactor" : 0.5
            }
        },
        {
            "doubleSided" : true,
            "emissiveFactor" : [
                0,
                0,
                0
            ],
            "name" : "Material",
            "pbrMetallicRoughness" : {
                "baseColorFactor" : [
                    1,
                    1,
                    1,
                    1
                ],
                "metallicFactor" : 0,
                "roughnessFactor" : 0.5
            }
        },
        {
            "doubleSided" : true,
            "emissiveFactor" : [
                0,
                0,
                0
            ],
            "name" : "Material.003",
            "pbrMetallicRoughness" : {
                "baseColorTexture" : {
                    "index" : 0,
                    "texCoord" : 0
                },
                "metallicFactor" : 0,
                "roughnessFactor" : 0.5
            }
        }
    ],
    "meshes" : [
        {
            "name" : "Circle",
            "primitives" : [
                {
                    "attributes" : {
                        "POSITION" : 0,
                        "NORMAL" : 1,
                        "TEXCOORD_0" : 2
                    },
                    "indices" : 3,
                    "material" : 0
                }
            ]
        },
        {
            "name" : "Circle.001",
            "primitives" : [
                {
                    "attributes" : {
                        "POSITION" : 4,
                        "NORMAL" : 5,
                        "TEXCOORD_0" : 6
                    },
                    "indices" : 7,
                    "material" : 1
                },
                {
                    "attributes" : {
                        "POSITION" : 8,
                        "NORMAL" : 9,
                        "TEXCOORD_0" : 10
                    },
                    "indices" : 11,
                    "material" : 2
                }
            ]
        }
    ],
    "textures" : [
        {
            "source" : 0
        }
    ],
    "images" : [
        {
            "mimeType" : "image/jpeg",
            "name" : "logomock",
            "uri" : "textures/logomock.jpg"
        }
    ],
    "accessors" : [
        {
            "bufferView" : 0,
            "componentType" : 5126,
            "count" : 20288,
            "max" : [
                1.0089774131774902,
                0.5693172216415405,
                1.0089774131774902
            ],
            "min" : [
                -1.0089774131774902,
                -1.5696059563197196e-08,
                -1.0089774131774902
            ],
            "type" : "VEC3"
        },
        {
            "bufferView" : 1,
            "componentType" : 5126,
            "count" : 20288,
            "type" : "VEC3"
        },
        {
            "bufferView" : 2,
            "componentType" : 5126,
            "count" : 20288,
            "type" : "VEC2"
        },
        {
            "bufferView" : 3,
            "componentType" : 5123,
            "count" : 120804,
            "type" : "SCALAR"
        },
        {
            "bufferView" : 4,
            "componentType" : 5126,
            "count" : 265,
            "max" : [
                0.9461395740509033,
                2.6000001430511475,
                0.7866863012313843
            ],
            "min" : [
                -0.9461395740509033,
                0,
                -0.9461395740509033
            ],
            "type" : "VEC3"
        },
        {
            "bufferView" : 5,
            "componentType" : 5126,
            "count" : 265,
            "type" : "VEC3"
        },
        {
            "bufferView" : 6,
            "componentType" : 5126,
            "count" : 265,
            "type" : "VEC2"
        },
        {
            "bufferView" : 7,
            "componentType" : 5123,
            "count" : 1458,
            "type" : "SCALAR"
        },
        {
            "bufferView" : 8,
            "componentType" : 5126,
            "count" : 20,
            "max" : [
                0.6690221428871155,
                2.6000001430511475,
                0.9461395144462585
            ],
            "min" : [
                -0.5256469249725342,
                0.195389986038208,
                0.5080539584159851
            ],
            "type" : "VEC3"
        },
        {
            "bufferView" : 9,
            "componentType" : 5126,
            "count" : 20,
            "type" : "VEC3"
        },
        {
            "bufferView" : 10,
            "componentType" : 5126,
            "count" : 20,
            "type" : "VEC2"
        },
        {
            "bufferView" : 11,
            "componentType" : 5123,
            "count" : 48,
            "type" : "SCALAR"
        }
    ],
    "bufferViews" : [
        {
            "buffer" : 0,
            "byteLength" : 243456,
            "byteOffset" : 0
        },
        {
            "buffer" : 0,
            "byteLength" : 243456,
            "byteOffset" : 243456
        },
        {
            "buffer" : 0,
            "byteLength" : 162304,
            "byteOffset" : 486912
        },
        {
            "buffer" : 0,
            "byteLength" : 241608,
            "byteOffset" : 649216
        },
        {
            "buffer" : 0,
            "byteLength" : 3180,
            "byteOffset" : 890824
        },
        {
            "buffer" : 0,
            "byteLength" : 3180,
            "byteOffset" : 894004
        },
        {
            "buffer" : 0,
            "byteLength" : 2120,
            "byteOffset" : 897184
        },
        {
            "buffer" : 0,
            "byteLength" : 2916,
            "byteOffset" : 899304
        },
        {
            "buffer" : 0,
            "byteLength" : 240,
            "byteOffset" : 902220
        },
        {
            "buffer" : 0,
            "byteLength" : 240,
            "byteOffset" : 902460
        },
        {
            "buffer" : 0,
            "byteLength" : 160,
            "byteOffset" : 902700
        },
        {
            "buffer" : 0,
            "byteLength" : 96,
            "byteOffset" : 902860
        }
    ],
    "buffers" : [
        {
            "byteLength" : 902956,
            "uri" : "coffee.bin"
        }
    ]
}
