{
    "asset" : {
        "generator" : "Khronos glTF Blender I/O v1.1.46",
        "version" : "2.0"
    },
    "scene" : 0,
    "scenes" : [
        {
            "name" : "Scene",
            "nodes" : [
                0,
                1,
                2
            ]
        }
    ],
    "nodes" : [
        {
            "name" : "Camera",
            "rotation" : [
                0.483536034822464,
                0.33687159419059753,
                -0.20870360732078552,
                0.7804827094078064
            ],
            "translation" : [
                7.358891487121582,
                4.958309173583984,
                6.925790786743164
            ]
        },
        {
            "mesh" : 0,
            "name" : "Circle",
            "rotation" : [
                0,
                0.9953650832176208,
                0,
                0.096168152987957
            ],
            "translation" : [
                0,
                2.51955246925354,
                0
            ]
        },
        {
            "mesh" : 1,
            "name" : "Circle.001",
            "scale" : [
                0.9824095964431763,
                0.9824095964431763,
                0.9824095964431763
            ]
        }
    ],
    "materials" : [
        {
            "doubleSided" : true,
            "emissiveFactor" : [
                0,
                0,
                0
            ],
            "name" : "Material.003",
            "pbrMetallicRoughness" : {
                "baseColorFactor" : [
                    0.800000011920929,
                    0.800000011920929,
                    0.800000011920929,
                    1
                ],
                "metallicFactor" : 0,
                "roughnessFactor" : 0
            }
        },
        {
            "doubleSided" : true,
            "emissiveFactor" : [
                0,
                0,
                0
            ],
            "name" : "Material",
            "pbrMetallicRoughness" : {
                "baseColorTexture" : {
                    "index" : 0,
                    "texCoord" : 0
                },
                "metallicFactor" : 0,
                "roughnessFactor" : 0.5
            }
        },
        {
            "doubleSided" : true,
            "emissiveFactor" : [
                0,
                0,
                0
            ],
            "name" : "Material.002",
            "pbrMetallicRoughness" : {
                "baseColorFactor" : [
                    1,
                    1,
                    1,
                    1
                ],
                "metallicFactor" : 0,
                "roughnessFactor" : 0.5
            }
        }
    ],
    "meshes" : [
        {
            "name" : "Circle",
            "primitives" : [
                {
                    "attributes" : {
                        "POSITION" : 0,
                        "NORMAL" : 1,
                        "TEXCOORD_0" : 2
                    },
                    "indices" : 3,
                    "material" : 0
                }
            ]
        },
        {
            "name" : "Circle.001",
            "primitives" : [
                {
                    "attributes" : {
                        "POSITION" : 4,
                        "NORMAL" : 5,
                        "TEXCOORD_0" : 6
                    },
                    "indices" : 7,
                    "material" : 1
                },
                {
                    "attributes" : {
                        "POSITION" : 8,
                        "NORMAL" : 9,
                        "TEXCOORD_0" : 10
                    },
                    "indices" : 11,
                    "material" : 2
                }
            ]
        }
    ],
    "textures" : [
        {
            "source" : 0
        }
    ],
    "images" : [
        {
            "mimeType" : "image/jpeg",
            "name" : "logomock",
            "uri" : "textures/logomock.jpg"
        }
    ],
    "accessors" : [
        {
            "bufferView" : 0,
            "componentType" : 5126,
            "count" : 20288,
            "max" : [
                1.0089774131774902,
                0.5693172216415405,
                1.0089774131774902
            ],
            "min" : [
                -1.0089774131774902,
                -1.5696059563197196e-08,
                -1.0089774131774902
            ],
            "type" : "VEC3"
        },
        {
            "bufferView" : 1,
            "componentType" : 5126,
            "count" : 20288,
            "type" : "VEC3"
        },
        {
            "bufferView" : 2,
            "componentType" : 5126,
            "count" : 20288,
            "type" : "VEC2"
        },
        {
            "bufferView" : 3,
            "componentType" : 5123,
            "count" : 121566,
            "type" : "SCALAR"
        },
        {
            "bufferView" : 4,
            "componentType" : 5126,
            "count" : 24,
            "max" : [
                0.6312254071235657,
                2.1062655448913574,
                -0.5751410126686096
            ],
            "min" : [
                -0.4959512948989868,
                1.22758948802948,
                -0.8926887512207031
            ],
            "type" : "VEC3"
        },
        {
            "bufferView" : 5,
            "componentType" : 5126,
            "count" : 24,
            "type" : "VEC3"
        },
        {
            "bufferView" : 6,
            "componentType" : 5126,
            "count" : 24,
            "type" : "VEC2"
        },
        {
            "bufferView" : 7,
            "componentType" : 5123,
            "count" : 84,
            "type" : "SCALAR"
        },
        {
            "bufferView" : 8,
            "componentType" : 5126,
            "count" : 389,
            "max" : [
                0.9461395740509033,
                2.6983909606933594,
                0.9461395144462585
            ],
            "min" : [
                -0.9461395740509033,
                -0.02833014726638794,
                -0.9461395740509033
            ],
            "type" : "VEC3"
        },
        {
            "bufferView" : 9,
            "componentType" : 5126,
            "count" : 389,
            "type" : "VEC3"
        },
        {
            "bufferView" : 10,
            "componentType" : 5126,
            "count" : 389,
            "type" : "VEC2"
        },
        {
            "bufferView" : 11,
            "componentType" : 5123,
            "count" : 2070,
            "type" : "SCALAR"
        }
    ],
    "bufferViews" : [
        {
            "buffer" : 0,
            "byteLength" : 243456,
            "byteOffset" : 0
        },
        {
            "buffer" : 0,
            "byteLength" : 243456,
            "byteOffset" : 243456
        },
        {
            "buffer" : 0,
            "byteLength" : 162304,
            "byteOffset" : 486912
        },
        {
            "buffer" : 0,
            "byteLength" : 243132,
            "byteOffset" : 649216
        },
        {
            "buffer" : 0,
            "byteLength" : 288,
            "byteOffset" : 892348
        },
        {
            "buffer" : 0,
            "byteLength" : 288,
            "byteOffset" : 892636
        },
        {
            "buffer" : 0,
            "byteLength" : 192,
            "byteOffset" : 892924
        },
        {
            "buffer" : 0,
            "byteLength" : 168,
            "byteOffset" : 893116
        },
        {
            "buffer" : 0,
            "byteLength" : 4668,
            "byteOffset" : 893284
        },
        {
            "buffer" : 0,
            "byteLength" : 4668,
            "byteOffset" : 897952
        },
        {
            "buffer" : 0,
            "byteLength" : 3112,
            "byteOffset" : 902620
        },
        {
            "buffer" : 0,
            "byteLength" : 4140,
            "byteOffset" : 905732
        }
    ],
    "buffers" : [
        {
            "byteLength" : 909872,
            "uri" : "coffee.bin"
        }
    ]
}
