{
    "asset" : {
        "generator" : "Khronos glTF Blender I/O v1.1.46",
        "version" : "2.0"
    },
    "scene" : 0,
    "scenes" : [
        {
            "name" : "Scene",
            "nodes" : [
                0,
                1
            ]
        }
    ],
    "nodes" : [
        {
            "mesh" : 0,
            "name" : "Circle",
            "scale" : [
                1.7330824136734009,
                1.7330824136734009,
                1.7330824136734009
            ]
        },
        {
            "mesh" : 1,
            "name" : "Cube",
            "scale" : [
                0.47625064849853516,
                0.026775307953357697,
                0.3361280560493469
            ],
            "translation" : [
                0.3289860486984253,
                4.999226093292236,
                0
            ]
        }
    ],
    "materials" : [
        {
            "doubleSided" : true,
            "emissiveFactor" : [
                0,
                0,
                0
            ],
            "name" : "Material.003",
            "pbrMetallicRoughness" : {
                "baseColorFactor" : [
                    0.800000011920929,
                    0.800000011920929,
                    0.800000011920929,
                    1
                ],
                "metallicFactor" : 0.7704545259475708,
                "roughnessFactor" : 0.5
            }
        },
        {
            "doubleSided" : true,
            "emissiveFactor" : [
                0,
                0,
                0
            ],
            "name" : "Material",
            "pbrMetallicRoughness" : {
                "baseColorTexture" : {
                    "index" : 0,
                    "texCoord" : 0
                },
                "metallicFactor" : 0,
                "roughnessFactor" : 0.5
            }
        },
        {
            "doubleSided" : true,
            "emissiveFactor" : [
                0,
                0,
                0
            ],
            "name" : "Material.002",
            "pbrMetallicRoughness" : {
                "baseColorFactor" : [
                    0.5271969437599182,
                    0.5271969437599182,
                    0.5271969437599182,
                    1
                ],
                "metallicFactor" : 0.5181818008422852,
                "roughnessFactor" : 0.5
            }
        }
    ],
    "meshes" : [
        {
            "name" : "Circle",
            "primitives" : [
                {
                    "attributes" : {
                        "POSITION" : 0,
                        "NORMAL" : 1,
                        "TANGENT" : 2,
                        "TEXCOORD_0" : 3
                    },
                    "indices" : 4,
                    "material" : 0
                },
                {
                    "attributes" : {
                        "POSITION" : 5,
                        "NORMAL" : 6,
                        "TANGENT" : 7,
                        "TEXCOORD_0" : 8
                    },
                    "indices" : 9,
                    "material" : 1
                }
            ]
        },
        {
            "name" : "Cube.002",
            "primitives" : [
                {
                    "attributes" : {
                        "POSITION" : 10,
                        "NORMAL" : 11,
                        "TANGENT" : 12,
                        "TEXCOORD_0" : 13
                    },
                    "indices" : 14,
                    "material" : 2
                }
            ]
        }
    ],
    "textures" : [
        {
            "source" : 0
        }
    ],
    "images" : [
        {
            "mimeType" : "image/jpeg",
            "name" : "logomock",
            "uri" : "textures/logomock.jpg"
        }
    ],
    "accessors" : [
        {
            "bufferView" : 0,
            "componentType" : 5126,
            "count" : 731089,
            "max" : [
                0.9569909572601318,
                2.8920481204986572,
                0.9569909572601318
            ],
            "min" : [
                -0.9569909572601318,
                -0.014372631907463074,
                -0.9569910764694214
            ],
            "type" : "VEC3"
        },
        {
            "bufferView" : 1,
            "componentType" : 5126,
            "count" : 731089,
            "type" : "VEC3"
        },
        {
            "bufferView" : 2,
            "componentType" : 5126,
            "count" : 731089,
            "type" : "VEC4"
        },
        {
            "bufferView" : 3,
            "componentType" : 5126,
            "count" : 731089,
            "type" : "VEC2"
        },
        {
            "bufferView" : 4,
            "componentType" : 5125,
            "count" : 1102848,
            "type" : "SCALAR"
        },
        {
            "bufferView" : 5,
            "componentType" : 5126,
            "count" : 98304,
            "max" : [
                0.9775193929672241,
                2.4867982864379883,
                0.9775193929672241
            ],
            "min" : [
                -0.9775193929672241,
                0.0847429409623146,
                -0.9775194525718689
            ],
            "type" : "VEC3"
        },
        {
            "bufferView" : 6,
            "componentType" : 5126,
            "count" : 98304,
            "type" : "VEC3"
        },
        {
            "bufferView" : 7,
            "componentType" : 5126,
            "count" : 98304,
            "type" : "VEC4"
        },
        {
            "bufferView" : 8,
            "componentType" : 5126,
            "count" : 98304,
            "type" : "VEC2"
        },
        {
            "bufferView" : 9,
            "componentType" : 5125,
            "count" : 147456,
            "type" : "SCALAR"
        },
        {
            "bufferView" : 10,
            "componentType" : 5126,
            "count" : 6600,
            "max" : [
                1.0440703630447388,
                1.083077311515808,
                1.0794217586517334
            ],
            "min" : [
                -1.0358595848083496,
                -1.0830777883529663,
                -1.079421877861023
            ],
            "type" : "VEC3"
        },
        {
            "bufferView" : 11,
            "componentType" : 5126,
            "count" : 6600,
            "type" : "VEC3"
        },
        {
            "bufferView" : 12,
            "componentType" : 5126,
            "count" : 6600,
            "type" : "VEC4"
        },
        {
            "bufferView" : 13,
            "componentType" : 5126,
            "count" : 6600,
            "type" : "VEC2"
        },
        {
            "bufferView" : 14,
            "componentType" : 5123,
            "count" : 34368,
            "type" : "SCALAR"
        }
    ],
    "bufferViews" : [
        {
            "buffer" : 0,
            "byteLength" : 8773068,
            "byteOffset" : 0
        },
        {
            "buffer" : 0,
            "byteLength" : 8773068,
            "byteOffset" : 8773068
        },
        {
            "buffer" : 0,
            "byteLength" : 11697424,
            "byteOffset" : 17546136
        },
        {
            "buffer" : 0,
            "byteLength" : 5848712,
            "byteOffset" : 29243560
        },
        {
            "buffer" : 0,
            "byteLength" : 4411392,
            "byteOffset" : 35092272
        },
        {
            "buffer" : 0,
            "byteLength" : 1179648,
            "byteOffset" : 39503664
        },
        {
            "buffer" : 0,
            "byteLength" : 1179648,
            "byteOffset" : 40683312
        },
        {
            "buffer" : 0,
            "byteLength" : 1572864,
            "byteOffset" : 41862960
        },
        {
            "buffer" : 0,
            "byteLength" : 786432,
            "byteOffset" : 43435824
        },
        {
            "buffer" : 0,
            "byteLength" : 589824,
            "byteOffset" : 44222256
        },
        {
            "buffer" : 0,
            "byteLength" : 79200,
            "byteOffset" : 44812080
        },
        {
            "buffer" : 0,
            "byteLength" : 79200,
            "byteOffset" : 44891280
        },
        {
            "buffer" : 0,
            "byteLength" : 105600,
            "byteOffset" : 44970480
        },
        {
            "buffer" : 0,
            "byteLength" : 52800,
            "byteOffset" : 45076080
        },
        {
            "buffer" : 0,
            "byteLength" : 68736,
            "byteOffset" : 45128880
        }
    ],
    "buffers" : [
        {
            "byteLength" : 45197616,
            "uri" : "can.bin"
        }
    ]
}
