{
    "asset" : {
        "generator" : "Khronos glTF Blender I/O v1.1.46",
        "version" : "2.0"
    },
    "scene" : 0,
    "scenes" : [
        {
            "name" : "Scene",
            "nodes" : [
                0,
                1,
                2,
                3
            ]
        }
    ],
    "nodes" : [
        {
            "mesh" : 0,
            "name" : "Cube",
            "rotation" : [
                0,
                -0.23811766505241394,
                0,
                0.9712362885475159
            ],
            "translation" : [
                -2.8010465030092746e-05,
                0,
                -6.867314368719235e-06
            ]
        },
        {
            "name" : "BezierCurve",
            "rotation" : [
                0,
                -0.23811766505241394,
                0,
                0.9712362885475159
            ],
            "scale" : [
                0.5871695280075073,
                0.5871695280075073,
                0.5871695280075073
            ],
            "translation" : [
                0.13877511024475098,
                3.6939749717712402,
                -0.26606741547584534
            ]
        },
        {
            "name" : "BezierCurve.001",
            "rotation" : [
                0,
                -0.23811766505241394,
                0,
                0.9712362885475159
            ],
            "scale" : [
                0.5871695280075073,
                0.5871695280075073,
                -0.5871695280075073
            ],
            "translation" : [
                -0.13874711096286774,
                3.6939749717712402,
                0.2658925950527191
            ]
        },
        {
            "name" : "Camera",
            "rotation" : [
                0.6378970742225647,
                -0.02680945210158825,
                0.022229420021176338,
                0.7693337798118591
            ],
            "translation" : [
                -0.7563988566398621,
                4.356062412261963,
                12.88696002960205
            ]
        }
    ],
    "materials" : [
        {
            "doubleSided" : true,
            "emissiveFactor" : [
                0,
                0,
                0
            ],
            "name" : "Material.004",
            "pbrMetallicRoughness" : {
                "baseColorTexture" : {
                    "index" : 0,
                    "texCoord" : 0
                },
                "metallicFactor" : 0,
                "roughnessFactor" : 0.5
            }
        },
        {
            "doubleSided" : true,
            "emissiveFactor" : [
                0,
                0,
                0
            ],
            "name" : "Material.007",
            "pbrMetallicRoughness" : {
                "baseColorFactor" : [
                    0.800000011920929,
                    0.800000011920929,
                    0.800000011920929,
                    1
                ],
                "metallicFactor" : 0,
                "roughnessFactor" : 0.5
            }
        },
        {
            "doubleSided" : true,
            "emissiveFactor" : [
                0,
                0,
                0
            ],
            "name" : "Material.009",
            "pbrMetallicRoughness" : {
                "baseColorTexture" : {
                    "index" : 1,
                    "texCoord" : 0
                },
                "metallicFactor" : 0,
                "roughnessFactor" : 0.5
            }
        }
    ],
    "meshes" : [
        {
            "name" : "Cube",
            "primitives" : [
                {
                    "attributes" : {
                        "POSITION" : 0,
                        "NORMAL" : 1,
                        "TANGENT" : 2,
                        "TEXCOORD_0" : 3
                    },
                    "indices" : 4,
                    "material" : 0
                },
                {
                    "attributes" : {
                        "POSITION" : 5,
                        "NORMAL" : 6,
                        "TANGENT" : 7,
                        "TEXCOORD_0" : 8
                    },
                    "indices" : 9,
                    "material" : 1
                },
                {
                    "attributes" : {
                        "POSITION" : 10,
                        "NORMAL" : 11,
                        "TANGENT" : 12,
                        "TEXCOORD_0" : 13
                    },
                    "indices" : 14,
                    "material" : 2
                }
            ]
        }
    ],
    "textures" : [
        {
            "source" : 0
        },
        {
            "source" : 1
        }
    ],
    "images" : [
        {
            "mimeType" : "image/jpeg",
            "name" : "222eb57beaf12e5e01ff93bc7392b162",
            "uri" : "textures/222eb57beaf12e5e01ff93bc7392b162.jpg"
        },
        {
            "mimeType" : "image/jpeg",
            "name" : "logomock",
            "uri" : "textures/logomock.jpg"
        }
    ],
    "accessors" : [
        {
            "bufferView" : 0,
            "componentType" : 5126,
            "count" : 48,
            "max" : [
                1,
                4.039002895355225,
                1
            ],
            "min" : [
                -1,
                0,
                -1
            ],
            "type" : "VEC3"
        },
        {
            "bufferView" : 1,
            "componentType" : 5126,
            "count" : 48,
            "type" : "VEC3"
        },
        {
            "bufferView" : 2,
            "componentType" : 5126,
            "count" : 48,
            "type" : "VEC4"
        },
        {
            "bufferView" : 3,
            "componentType" : 5126,
            "count" : 48,
            "type" : "VEC2"
        },
        {
            "bufferView" : 4,
            "componentType" : 5123,
            "count" : 96,
            "type" : "SCALAR"
        },
        {
            "bufferView" : 5,
            "componentType" : 5126,
            "count" : 16,
            "max" : [
                0.9050161242485046,
                2.7392783164978027,
                0.9050161242485046
            ],
            "min" : [
                -0.9050161242485046,
                1.8038619756698608,
                -0.9050161242485046
            ],
            "type" : "VEC3"
        },
        {
            "bufferView" : 6,
            "componentType" : 5126,
            "count" : 16,
            "type" : "VEC3"
        },
        {
            "bufferView" : 7,
            "componentType" : 5126,
            "count" : 16,
            "type" : "VEC4"
        },
        {
            "bufferView" : 8,
            "componentType" : 5126,
            "count" : 16,
            "type" : "VEC2"
        },
        {
            "bufferView" : 9,
            "componentType" : 5123,
            "count" : 30,
            "type" : "SCALAR"
        },
        {
            "bufferView" : 10,
            "componentType" : 5126,
            "count" : 4,
            "max" : [
                0.9050161242485046,
                2.59389591217041,
                -0.8634162545204163
            ],
            "min" : [
                -0.9050161242485046,
                1.8038619756698608,
                -0.9050161242485046
            ],
            "type" : "VEC3"
        },
        {
            "bufferView" : 11,
            "componentType" : 5126,
            "count" : 4,
            "type" : "VEC3"
        },
        {
            "bufferView" : 12,
            "componentType" : 5126,
            "count" : 4,
            "type" : "VEC4"
        },
        {
            "bufferView" : 13,
            "componentType" : 5126,
            "count" : 4,
            "type" : "VEC2"
        },
        {
            "bufferView" : 14,
            "componentType" : 5123,
            "count" : 6,
            "type" : "SCALAR"
        }
    ],
    "bufferViews" : [
        {
            "buffer" : 0,
            "byteLength" : 576,
            "byteOffset" : 0
        },
        {
            "buffer" : 0,
            "byteLength" : 576,
            "byteOffset" : 576
        },
        {
            "buffer" : 0,
            "byteLength" : 768,
            "byteOffset" : 1152
        },
        {
            "buffer" : 0,
            "byteLength" : 384,
            "byteOffset" : 1920
        },
        {
            "buffer" : 0,
            "byteLength" : 192,
            "byteOffset" : 2304
        },
        {
            "buffer" : 0,
            "byteLength" : 192,
            "byteOffset" : 2496
        },
        {
            "buffer" : 0,
            "byteLength" : 192,
            "byteOffset" : 2688
        },
        {
            "buffer" : 0,
            "byteLength" : 256,
            "byteOffset" : 2880
        },
        {
            "buffer" : 0,
            "byteLength" : 128,
            "byteOffset" : 3136
        },
        {
            "buffer" : 0,
            "byteLength" : 60,
            "byteOffset" : 3264
        },
        {
            "buffer" : 0,
            "byteLength" : 48,
            "byteOffset" : 3324
        },
        {
            "buffer" : 0,
            "byteLength" : 48,
            "byteOffset" : 3372
        },
        {
            "buffer" : 0,
            "byteLength" : 64,
            "byteOffset" : 3420
        },
        {
            "buffer" : 0,
            "byteLength" : 32,
            "byteOffset" : 3484
        },
        {
            "buffer" : 0,
            "byteLength" : 12,
            "byteOffset" : 3516
        }
    ],
    "buffers" : [
        {
            "byteLength" : 3528,
            "uri" : "paperbag.bin"
        }
    ]
}
