{
    "asset" : {
        "generator" : "Khronos glTF Blender I/O v1.1.46",
        "version" : "2.0"
    },
    "scene" : 0,
    "scenes" : [
        {
            "name" : "Scene",
            "nodes" : [
                0,
                1,
                2
            ]
        }
    ],
    "nodes" : [
        {
            "mesh" : 0,
            "name" : "Cube",
            "rotation" : [
                0,
                -0.23811766505241394,
                0,
                0.9712362885475159
            ],
            "scale" : [
                0.604357898235321,
                0.6772183179855347,
                0.33991527557373047
            ],
            "translation" : [
                -1.8970804376294836e-05,
                0.794898271560669,
                -5.2564613724825904e-05
            ]
        },
        {
            "name" : "BezierCurve",
            "rotation" : [
                0,
                -0.23811766505241394,
                0,
                0.9712362885475159
            ],
            "scale" : [
                0.3548605442047119,
                0.39764195680618286,
                0.1995878964662552
            ],
            "translation" : [
                0.09398104250431061,
                3.2965259552001953,
                -0.039664581418037415
            ]
        },
        {
            "name" : "BezierCurve.001",
            "rotation" : [
                0,
                -0.23811766505241394,
                0,
                0.9712362885475159
            ],
            "scale" : [
                0.3548605442047119,
                0.39764195680618286,
                -0.1995878964662552
            ],
            "translation" : [
                -0.09396209567785263,
                3.2965259552001953,
                0.03953547775745392
            ]
        }
    ],
    "materials" : [
        {
            "doubleSided" : true,
            "emissiveFactor" : [
                0,
                0,
                0
            ],
            "name" : "Material",
            "pbrMetallicRoughness" : {
                "baseColorFactor" : [
                    1,
                    1,
                    1,
                    1
                ],
                "metallicFactor" : 0,
                "roughnessFactor" : 0.5
            }
        },
        {
            "doubleSided" : true,
            "emissiveFactor" : [
                0,
                0,
                0
            ],
            "name" : "Material.006",
            "pbrMetallicRoughness" : {
                "baseColorTexture" : {
                    "index" : 0,
                    "texCoord" : 0
                },
                "metallicFactor" : 0,
                "roughnessFactor" : 0.5
            }
        }
    ],
    "meshes" : [
        {
            "name" : "Cube",
            "primitives" : [
                {
                    "attributes" : {
                        "POSITION" : 0,
                        "NORMAL" : 1,
                        "TANGENT" : 2,
                        "TEXCOORD_0" : 3
                    },
                    "indices" : 4,
                    "material" : 0
                },
                {
                    "attributes" : {
                        "POSITION" : 5,
                        "NORMAL" : 6,
                        "TANGENT" : 7,
                        "TEXCOORD_0" : 8
                    },
                    "indices" : 9,
                    "material" : 1
                }
            ]
        }
    ],
    "textures" : [
        {
            "source" : 0
        }
    ],
    "images" : [
        {
            "mimeType" : "image/jpeg",
            "name" : "logomock",
            "uri" : "textures/logomock.jpg"
        }
    ],
    "accessors" : [
        {
            "bufferView" : 0,
            "componentType" : 5126,
            "count" : 142,
            "max" : [
                1,
                4.039002895355225,
                1
            ],
            "min" : [
                -1,
                0,
                -1
            ],
            "type" : "VEC3"
        },
        {
            "bufferView" : 1,
            "componentType" : 5126,
            "count" : 142,
            "type" : "VEC3"
        },
        {
            "bufferView" : 2,
            "componentType" : 5126,
            "count" : 142,
            "type" : "VEC4"
        },
        {
            "bufferView" : 3,
            "componentType" : 5126,
            "count" : 142,
            "type" : "VEC2"
        },
        {
            "bufferView" : 4,
            "componentType" : 5123,
            "count" : 216,
            "type" : "SCALAR"
        },
        {
            "bufferView" : 5,
            "componentType" : 5126,
            "count" : 8,
            "max" : [
                0.318497896194458,
                2.59389591217041,
                0.9050161242485046
            ],
            "min" : [
                -0.2932591438293457,
                1.8038619756698608,
                -0.9050161242485046
            ],
            "type" : "VEC3"
        },
        {
            "bufferView" : 6,
            "componentType" : 5126,
            "count" : 8,
            "type" : "VEC3"
        },
        {
            "bufferView" : 7,
            "componentType" : 5126,
            "count" : 8,
            "type" : "VEC4"
        },
        {
            "bufferView" : 8,
            "componentType" : 5126,
            "count" : 8,
            "type" : "VEC2"
        },
        {
            "bufferView" : 9,
            "componentType" : 5123,
            "count" : 12,
            "type" : "SCALAR"
        }
    ],
    "bufferViews" : [
        {
            "buffer" : 0,
            "byteLength" : 1704,
            "byteOffset" : 0
        },
        {
            "buffer" : 0,
            "byteLength" : 1704,
            "byteOffset" : 1704
        },
        {
            "buffer" : 0,
            "byteLength" : 2272,
            "byteOffset" : 3408
        },
        {
            "buffer" : 0,
            "byteLength" : 1136,
            "byteOffset" : 5680
        },
        {
            "buffer" : 0,
            "byteLength" : 432,
            "byteOffset" : 6816
        },
        {
            "buffer" : 0,
            "byteLength" : 96,
            "byteOffset" : 7248
        },
        {
            "buffer" : 0,
            "byteLength" : 96,
            "byteOffset" : 7344
        },
        {
            "buffer" : 0,
            "byteLength" : 128,
            "byteOffset" : 7440
        },
        {
            "buffer" : 0,
            "byteLength" : 64,
            "byteOffset" : 7568
        },
        {
            "buffer" : 0,
            "byteLength" : 24,
            "byteOffset" : 7632
        }
    ],
    "buffers" : [
        {
            "byteLength" : 7656,
            "uri" : "paperbag.bin"
        }
    ]
}
