{
    "asset" : {
        "generator" : "Khronos glTF Blender I/O v1.1.46",
        "version" : "2.0"
    },
    "scene" : 0,
    "scenes" : [
        {
            "name" : "Scene",
            "nodes" : [
                0
            ]
        }
    ],
    "nodes" : [
        {
            "mesh" : 0,
            "name" : "Circle",
            "scale" : [
                1.677228569984436,
                2.323042869567871,
                1.677228569984436
            ]
        }
    ],
    "materials" : [
        {
            "doubleSided" : true,
            "emissiveFactor" : [
                0,
                0,
                0
            ],
            "name" : "Material.001",
            "pbrMetallicRoughness" : {
                "baseColorFactor" : [
                    1,
                    1,
                    1,
                    1
                ],
                "metallicFactor" : 0,
                "roughnessFactor" : 0.5
            }
        },
        {
            "doubleSided" : true,
            "emissiveFactor" : [
                0,
                0,
                0
            ],
            "name" : "Material.002",
            "pbrMetallicRoughness" : {
                "baseColorTexture" : {
                    "index" : 0,
                    "texCoord" : 0
                },
                "metallicFactor" : 0,
                "roughnessFactor" : 0.5
            }
        }
    ],
    "meshes" : [
        {
            "name" : "Circle",
            "primitives" : [
                {
                    "attributes" : {
                        "POSITION" : 0,
                        "NORMAL" : 1,
                        "TANGENT" : 2,
                        "TEXCOORD_0" : 3
                    },
                    "indices" : 4,
                    "material" : 0
                },
                {
                    "attributes" : {
                        "POSITION" : 5,
                        "NORMAL" : 6,
                        "TANGENT" : 7,
                        "TEXCOORD_0" : 8
                    },
                    "indices" : 9,
                    "material" : 1
                }
            ]
        }
    ],
    "textures" : [
        {
            "source" : 0
        }
    ],
    "images" : [
        {
            "mimeType" : "image/jpeg",
            "name" : "logomock",
            "uri" : "textures/logomock.jpg"
        }
    ],
    "accessors" : [
        {
            "bufferView" : 0,
            "componentType" : 5126,
            "count" : 22143,
            "max" : [
                1.5771427154541016,
                1.7371230125427246,
                1.5771428346633911
            ],
            "min" : [
                -1.577142596244812,
                -0.40000012516975403,
                -2.4693360328674316
            ],
            "type" : "VEC3"
        },
        {
            "bufferView" : 1,
            "componentType" : 5126,
            "count" : 22143,
            "type" : "VEC3"
        },
        {
            "bufferView" : 2,
            "componentType" : 5126,
            "count" : 22143,
            "type" : "VEC4"
        },
        {
            "bufferView" : 3,
            "componentType" : 5126,
            "count" : 22143,
            "type" : "VEC2"
        },
        {
            "bufferView" : 4,
            "componentType" : 5123,
            "count" : 132480,
            "type" : "SCALAR"
        },
        {
            "bufferView" : 5,
            "componentType" : 5126,
            "count" : 531,
            "max" : [
                -0.8031966686248779,
                1.340311884880066,
                1.2921823263168335
            ],
            "min" : [
                -1.5540987253189087,
                0.4335734248161316,
                -0.5947229266166687
            ],
            "type" : "VEC3"
        },
        {
            "bufferView" : 6,
            "componentType" : 5126,
            "count" : 531,
            "type" : "VEC3"
        },
        {
            "bufferView" : 7,
            "componentType" : 5126,
            "count" : 531,
            "type" : "VEC4"
        },
        {
            "bufferView" : 8,
            "componentType" : 5126,
            "count" : 531,
            "type" : "VEC2"
        },
        {
            "bufferView" : 9,
            "componentType" : 5123,
            "count" : 2688,
            "type" : "SCALAR"
        }
    ],
    "bufferViews" : [
        {
            "buffer" : 0,
            "byteLength" : 265716,
            "byteOffset" : 0
        },
        {
            "buffer" : 0,
            "byteLength" : 265716,
            "byteOffset" : 265716
        },
        {
            "buffer" : 0,
            "byteLength" : 354288,
            "byteOffset" : 531432
        },
        {
            "buffer" : 0,
            "byteLength" : 177144,
            "byteOffset" : 885720
        },
        {
            "buffer" : 0,
            "byteLength" : 264960,
            "byteOffset" : 1062864
        },
        {
            "buffer" : 0,
            "byteLength" : 6372,
            "byteOffset" : 1327824
        },
        {
            "buffer" : 0,
            "byteLength" : 6372,
            "byteOffset" : 1334196
        },
        {
            "buffer" : 0,
            "byteLength" : 8496,
            "byteOffset" : 1340568
        },
        {
            "buffer" : 0,
            "byteLength" : 4248,
            "byteOffset" : 1349064
        },
        {
            "buffer" : 0,
            "byteLength" : 5376,
            "byteOffset" : 1353312
        }
    ],
    "buffers" : [
        {
            "byteLength" : 1358688,
            "uri" : "cup.bin"
        }
    ]
}
