{
    "asset" : {
        "generator" : "Khronos glTF Blender I/O v1.1.46",
        "version" : "2.0"
    },
    "scene" : 0,
    "scenes" : [
        {
            "name" : "Scene",
            "nodes" : [
                0,
                1,
                2,
                3,
                4,
                5
            ]
        }
    ],
    "nodes" : [
        {
            "name" : "Circle.001",
            "scale" : [
                0.5223227143287659,
                0.5223227143287659,
                0.5223227143287659
            ]
        },
        {
            "name" : "Circle.003",
            "scale" : [
                0.4496052861213684,
                0.4496052861213684,
                0.4496052861213684
            ],
            "translation" : [
                0,
                -0.003590550972148776,
                0
            ]
        },
        {
            "mesh" : 0,
            "name" : "Circle.005",
            "rotation" : [
                0,
                -0.9354329705238342,
                0,
                0.35350415110588074
            ],
            "scale" : [
                1,
                1.151438593864441,
                1
            ],
            "translation" : [
                0.10589194297790527,
                0.00048800185322761536,
                -0.007876303978264332
            ]
        },
        {
            "name" : "Camera",
            "rotation" : [
                0.6217048168182373,
                -0.030693765729665756,
                0.02439398318529129,
                0.7822697162628174
            ],
            "translation" : [
                -0.7563988566398621,
                4.356062412261963,
                12.88696002960205
            ]
        },
        {
            "name" : "Light",
            "rotation" : [
                0.16907575726509094,
                0.7558803558349609,
                -0.27217137813568115,
                0.570947527885437
            ],
            "scale" : [
                1.587303638458252,
                1.5873035192489624,
                1.587303876876831
            ],
            "translation" : [
                5.250792503356934,
                3.748512029647827,
                -4.026736259460449
            ]
        },
        {
            "name" : "Light.001",
            "rotation" : [
                0.3671852946281433,
                0.5562682747840881,
                -0.47556376457214355,
                0.5740903615951538
            ],
            "scale" : [
                11.861411094665527,
                11.861410140991211,
                11.86141300201416
            ],
            "translation" : [
                1.373518705368042,
                8.782299995422363,
                7.8287153244018555
            ]
        }
    ],
    "materials" : [
        {
            "doubleSided" : true,
            "emissiveFactor" : [
                0,
                0,
                0
            ],
            "name" : "Material",
            "pbrMetallicRoughness" : {
                "baseColorFactor" : [
                    0,
                    0,
                    0,
                    1
                ],
                "metallicFactor" : 0,
                "roughnessFactor" : 0.5
            }
        },
        {
            "doubleSided" : true,
            "emissiveFactor" : [
                0,
                0,
                0
            ],
            "name" : "Material.002",
            "pbrMetallicRoughness" : {
                "baseColorTexture" : {
                    "index" : 0,
                    "texCoord" : 0
                },
                "metallicFactor" : 0,
                "roughnessFactor" : 0.5
            }
        },
        {
            "doubleSided" : true,
            "emissiveFactor" : [
                0,
                0,
                0
            ],
            "name" : "Material.001",
            "pbrMetallicRoughness" : {
                "baseColorFactor" : [
                    1,
                    1,
                    1,
                    1
                ],
                "metallicFactor" : 0,
                "roughnessFactor" : 0.5
            }
        }
    ],
    "meshes" : [
        {
            "name" : "Circle.005",
            "primitives" : [
                {
                    "attributes" : {
                        "POSITION" : 0,
                        "NORMAL" : 1,
                        "TEXCOORD_0" : 2
                    },
                    "indices" : 3,
                    "material" : 0
                },
                {
                    "attributes" : {
                        "POSITION" : 4,
                        "NORMAL" : 5,
                        "TEXCOORD_0" : 6
                    },
                    "indices" : 7,
                    "material" : 1
                },
                {
                    "attributes" : {
                        "POSITION" : 8,
                        "NORMAL" : 9,
                        "TEXCOORD_0" : 10
                    },
                    "indices" : 11,
                    "material" : 2
                }
            ]
        }
    ],
    "textures" : [
        {
            "source" : 0
        }
    ],
    "images" : [
        {
            "mimeType" : "image/jpeg",
            "name" : "logomock",
            "uri" : "textures/logomock.jpg"
        }
    ],
    "accessors" : [
        {
            "bufferView" : 0,
            "componentType" : 5126,
            "count" : 118374,
            "max" : [
                0.5751533508300781,
                2.4726946353912354,
                0.5751535296440125
            ],
            "min" : [
                -0.5759752988815308,
                -0.05980731174349785,
                -0.5751533508300781
            ],
            "type" : "VEC3"
        },
        {
            "bufferView" : 1,
            "componentType" : 5126,
            "count" : 118374,
            "type" : "VEC3"
        },
        {
            "bufferView" : 2,
            "componentType" : 5126,
            "count" : 118374,
            "type" : "VEC2"
        },
        {
            "bufferView" : 3,
            "componentType" : 5125,
            "count" : 232392,
            "type" : "SCALAR"
        },
        {
            "bufferView" : 4,
            "componentType" : 5126,
            "count" : 1419,
            "max" : [
                0.5759750604629517,
                1.883428692817688,
                0.5758676528930664
            ],
            "min" : [
                -0.5759752988815308,
                0.0745982751250267,
                -0.5759750604629517
            ],
            "type" : "VEC3"
        },
        {
            "bufferView" : 5,
            "componentType" : 5126,
            "count" : 1419,
            "type" : "VEC3"
        },
        {
            "bufferView" : 6,
            "componentType" : 5126,
            "count" : 1419,
            "type" : "VEC2"
        },
        {
            "bufferView" : 7,
            "componentType" : 5123,
            "count" : 4548,
            "type" : "SCALAR"
        },
        {
            "bufferView" : 8,
            "componentType" : 5126,
            "count" : 268,
            "max" : [
                0.4048066735267639,
                1.6113256216049194,
                0.5759752988815308
            ],
            "min" : [
                -0.4474438428878784,
                0.0745982825756073,
                0.3605453372001648
            ],
            "type" : "VEC3"
        },
        {
            "bufferView" : 9,
            "componentType" : 5126,
            "count" : 268,
            "type" : "VEC3"
        },
        {
            "bufferView" : 10,
            "componentType" : 5126,
            "count" : 268,
            "type" : "VEC2"
        },
        {
            "bufferView" : 11,
            "componentType" : 5123,
            "count" : 666,
            "type" : "SCALAR"
        }
    ],
    "bufferViews" : [
        {
            "buffer" : 0,
            "byteLength" : 1420488,
            "byteOffset" : 0
        },
        {
            "buffer" : 0,
            "byteLength" : 1420488,
            "byteOffset" : 1420488
        },
        {
            "buffer" : 0,
            "byteLength" : 946992,
            "byteOffset" : 2840976
        },
        {
            "buffer" : 0,
            "byteLength" : 929568,
            "byteOffset" : 3787968
        },
        {
            "buffer" : 0,
            "byteLength" : 17028,
            "byteOffset" : 4717536
        },
        {
            "buffer" : 0,
            "byteLength" : 17028,
            "byteOffset" : 4734564
        },
        {
            "buffer" : 0,
            "byteLength" : 11352,
            "byteOffset" : 4751592
        },
        {
            "buffer" : 0,
            "byteLength" : 9096,
            "byteOffset" : 4762944
        },
        {
            "buffer" : 0,
            "byteLength" : 3216,
            "byteOffset" : 4772040
        },
        {
            "buffer" : 0,
            "byteLength" : 3216,
            "byteOffset" : 4775256
        },
        {
            "buffer" : 0,
            "byteLength" : 2144,
            "byteOffset" : 4778472
        },
        {
            "buffer" : 0,
            "byteLength" : 1332,
            "byteOffset" : 4780616
        }
    ],
    "buffers" : [
        {
            "byteLength" : 4781948,
            "uri" : "waterbottle.bin"
        }
    ]
}
