{
    "asset" : {
        "generator" : "Khronos glTF Blender I/O v1.1.46",
        "version" : "2.0"
    },
    "scene" : 0,
    "scenes" : [
        {
            "name" : "Scene",
            "nodes" : [
                0
            ]
        }
    ],
    "nodes" : [
        {
            "mesh" : 0,
            "name" : "Circle.005",
            "rotation" : [
                0,
                -0.9354329705238342,
                0,
                0.35350415110588074
            ],
            "scale" : [
                1,
                1.151438593864441,
                1
            ],
            "translation" : [
                0.10589194297790527,
                0.00048800185322761536,
                -0.007876303978264332
            ]
        }
    ],
    "materials" : [
        {
            "doubleSided" : true,
            "emissiveFactor" : [
                0,
                0,
                0
            ],
            "name" : "Material",
            "pbrMetallicRoughness" : {
                "baseColorFactor" : [
                    0.45628589391708374,
                    0.4570847749710083,
                    0.5075838565826416,
                    1
                ],
                "metallicFactor" : 0.022727273404598236,
                "roughnessFactor" : 0
            }
        },
        {
            "doubleSided" : true,
            "emissiveFactor" : [
                0,
                0,
                0
            ],
            "name" : "Material.002",
            "pbrMetallicRoughness" : {
                "baseColorFactor" : [
                    1,
                    1,
                    1,
                    1
                ],
                "metallicFactor" : 0,
                "roughnessFactor" : 0.5
            }
        },
        {
            "doubleSided" : true,
            "emissiveFactor" : [
                0,
                0,
                0
            ],
            "name" : "Material.001",
            "pbrMetallicRoughness" : {
                "baseColorTexture" : {
                    "index" : 0,
                    "texCoord" : 0
                },
                "metallicFactor" : 0,
                "roughnessFactor" : 0.5
            }
        }
    ],
    "meshes" : [
        {
            "name" : "Circle.005",
            "primitives" : [
                {
                    "attributes" : {
                        "POSITION" : 0,
                        "NORMAL" : 1,
                        "TEXCOORD_0" : 2
                    },
                    "indices" : 3,
                    "material" : 0
                },
                {
                    "attributes" : {
                        "POSITION" : 4,
                        "NORMAL" : 5,
                        "TEXCOORD_0" : 6
                    },
                    "indices" : 7,
                    "material" : 1
                },
                {
                    "attributes" : {
                        "POSITION" : 8,
                        "NORMAL" : 9,
                        "TEXCOORD_0" : 10
                    },
                    "indices" : 11,
                    "material" : 2
                }
            ]
        }
    ],
    "textures" : [
        {
            "source" : 0
        }
    ],
    "images" : [
        {
            "mimeType" : "image/jpeg",
            "name" : "logomock",
            "uri" : "textures/logomock.jpg"
        }
    ],
    "accessors" : [
        {
            "bufferView" : 0,
            "componentType" : 5126,
            "count" : 118374,
            "max" : [
                0.5751533508300781,
                2.4726946353912354,
                0.5751535296440125
            ],
            "min" : [
                -0.5759752988815308,
                -0.05980731174349785,
                -0.5751533508300781
            ],
            "type" : "VEC3"
        },
        {
            "bufferView" : 1,
            "componentType" : 5126,
            "count" : 118374,
            "type" : "VEC3"
        },
        {
            "bufferView" : 2,
            "componentType" : 5126,
            "count" : 118374,
            "type" : "VEC2"
        },
        {
            "bufferView" : 3,
            "componentType" : 5125,
            "count" : 232392,
            "type" : "SCALAR"
        },
        {
            "bufferView" : 4,
            "componentType" : 5126,
            "count" : 1395,
            "max" : [
                0.5759750604629517,
                1.883428692817688,
                0.5758676528930664
            ],
            "min" : [
                -0.5759752988815308,
                0.0745982751250267,
                -0.5759750604629517
            ],
            "type" : "VEC3"
        },
        {
            "bufferView" : 5,
            "componentType" : 5126,
            "count" : 1395,
            "type" : "VEC3"
        },
        {
            "bufferView" : 6,
            "componentType" : 5126,
            "count" : 1395,
            "type" : "VEC2"
        },
        {
            "bufferView" : 7,
            "componentType" : 5123,
            "count" : 4446,
            "type" : "SCALAR"
        },
        {
            "bufferView" : 8,
            "componentType" : 5126,
            "count" : 304,
            "max" : [
                0.4048066735267639,
                1.6113256216049194,
                0.5759752988815308
            ],
            "min" : [
                -0.5307949781417847,
                0.0745982825756073,
                -0.5501588582992554
            ],
            "type" : "VEC3"
        },
        {
            "bufferView" : 9,
            "componentType" : 5126,
            "count" : 304,
            "type" : "VEC3"
        },
        {
            "bufferView" : 10,
            "componentType" : 5126,
            "count" : 304,
            "type" : "VEC2"
        },
        {
            "bufferView" : 11,
            "componentType" : 5123,
            "count" : 768,
            "type" : "SCALAR"
        }
    ],
    "bufferViews" : [
        {
            "buffer" : 0,
            "byteLength" : 1420488,
            "byteOffset" : 0
        },
        {
            "buffer" : 0,
            "byteLength" : 1420488,
            "byteOffset" : 1420488
        },
        {
            "buffer" : 0,
            "byteLength" : 946992,
            "byteOffset" : 2840976
        },
        {
            "buffer" : 0,
            "byteLength" : 929568,
            "byteOffset" : 3787968
        },
        {
            "buffer" : 0,
            "byteLength" : 16740,
            "byteOffset" : 4717536
        },
        {
            "buffer" : 0,
            "byteLength" : 16740,
            "byteOffset" : 4734276
        },
        {
            "buffer" : 0,
            "byteLength" : 11160,
            "byteOffset" : 4751016
        },
        {
            "buffer" : 0,
            "byteLength" : 8892,
            "byteOffset" : 4762176
        },
        {
            "buffer" : 0,
            "byteLength" : 3648,
            "byteOffset" : 4771068
        },
        {
            "buffer" : 0,
            "byteLength" : 3648,
            "byteOffset" : 4774716
        },
        {
            "buffer" : 0,
            "byteLength" : 2432,
            "byteOffset" : 4778364
        },
        {
            "buffer" : 0,
            "byteLength" : 1536,
            "byteOffset" : 4780796
        }
    ],
    "buffers" : [
        {
            "byteLength" : 4782332,
            "uri" : "waterbottle.bin"
        }
    ]
}
