{
    "asset" : {
        "generator" : "Khronos glTF Blender I/O v1.1.46",
        "version" : "2.0"
    },
    "scene" : 0,
    "scenes" : [
        {
            "name" : "Scene",
            "nodes" : [
                0
            ]
        }
    ],
    "nodes" : [
        {
            "mesh" : 0,
            "name" : "Circle.005",
            "rotation" : [
                0,
                -0.9126560688018799,
                0,
                -0.4087284207344055
            ],
            "scale" : [
                1,
                1.151438593864441,
                1
            ],
            "translation" : [
                0.10589194297790527,
                0.00048800185322761536,
                -0.007876303978264332
            ]
        }
    ],
    "materials" : [
        {
            "doubleSided" : true,
            "emissiveFactor" : [
                0,
                0,
                0
            ],
            "name" : "Material.003",
            "pbrMetallicRoughness" : {
                "baseColorFactor" : [
                    1,
                    1,
                    1,
                    1
                ],
                "metallicFactor" : 0,
                "roughnessFactor" : 0
            }
        },
        {
            "doubleSided" : true,
            "emissiveFactor" : [
                0,
                0,
                0
            ],
            "name" : "Material",
            "pbrMetallicRoughness" : {
                "baseColorTexture" : {
                    "index" : 0,
                    "texCoord" : 0
                },
                "metallicFactor" : 0,
                "roughnessFactor" : 0.5
            }
        }
    ],
    "meshes" : [
        {
            "name" : "Circle.005",
            "primitives" : [
                {
                    "attributes" : {
                        "POSITION" : 0,
                        "NORMAL" : 1,
                        "TEXCOORD_0" : 2
                    },
                    "indices" : 3,
                    "material" : 0
                },
                {
                    "attributes" : {
                        "POSITION" : 4,
                        "NORMAL" : 5,
                        "TEXCOORD_0" : 6
                    },
                    "indices" : 7,
                    "material" : 1
                }
            ]
        }
    ],
    "textures" : [
        {
            "source" : 0
        }
    ],
    "images" : [
        {
            "mimeType" : "image/jpeg",
            "name" : "logomock",
            "uri" : "textures/logomock.jpg"
        }
    ],
    "accessors" : [
        {
            "bufferView" : 0,
            "componentType" : 5126,
            "count" : 119980,
            "max" : [
                0.5759750604629517,
                2.4726946353912354,
                0.5759752988815308
            ],
            "min" : [
                -0.5759752988815308,
                -0.05980731174349785,
                -0.5759750604629517
            ],
            "type" : "VEC3"
        },
        {
            "bufferView" : 1,
            "componentType" : 5126,
            "count" : 119980,
            "type" : "VEC3"
        },
        {
            "bufferView" : 2,
            "componentType" : 5126,
            "count" : 119980,
            "type" : "VEC2"
        },
        {
            "bufferView" : 3,
            "componentType" : 5125,
            "count" : 237468,
            "type" : "SCALAR"
        },
        {
            "bufferView" : 4,
            "componentType" : 5126,
            "count" : 48,
            "max" : [
                -0.11576837301254272,
                1.6072134971618652,
                -0.11576986312866211
            ],
            "min" : [
                -0.564225971698761,
                0.9855919480323792,
                -0.5642256736755371
            ],
            "type" : "VEC3"
        },
        {
            "bufferView" : 5,
            "componentType" : 5126,
            "count" : 48,
            "type" : "VEC3"
        },
        {
            "bufferView" : 6,
            "componentType" : 5126,
            "count" : 48,
            "type" : "VEC2"
        },
        {
            "bufferView" : 7,
            "componentType" : 5123,
            "count" : 138,
            "type" : "SCALAR"
        }
    ],
    "bufferViews" : [
        {
            "buffer" : 0,
            "byteLength" : 1439760,
            "byteOffset" : 0
        },
        {
            "buffer" : 0,
            "byteLength" : 1439760,
            "byteOffset" : 1439760
        },
        {
            "buffer" : 0,
            "byteLength" : 959840,
            "byteOffset" : 2879520
        },
        {
            "buffer" : 0,
            "byteLength" : 949872,
            "byteOffset" : 3839360
        },
        {
            "buffer" : 0,
            "byteLength" : 576,
            "byteOffset" : 4789232
        },
        {
            "buffer" : 0,
            "byteLength" : 576,
            "byteOffset" : 4789808
        },
        {
            "buffer" : 0,
            "byteLength" : 384,
            "byteOffset" : 4790384
        },
        {
            "buffer" : 0,
            "byteLength" : 276,
            "byteOffset" : 4790768
        }
    ],
    "buffers" : [
        {
            "byteLength" : 4791044,
            "uri" : "waterbottle.bin"
        }
    ]
}
