{
    "asset" : {
        "generator" : "Khronos glTF Blender I/O v1.1.46",
        "version" : "2.0"
    },
    "scene" : 0,
    "scenes" : [
        {
            "name" : "Scene",
            "nodes" : [
                0
            ]
        }
    ],
    "nodes" : [
        {
            "mesh" : 0,
            "name" : "Circle",
            "scale" : [
                1,
                0.851128339767456,
                1
            ]
        }
    ],
    "materials" : [
        {
            "doubleSided" : true,
            "emissiveFactor" : [
                0,
                0,
                0
            ],
            "name" : "Material.001",
            "pbrMetallicRoughness" : {
                "baseColorFactor" : [
                    0.800000011920929,
                    0.800000011920929,
                    0.800000011920929,
                    1
                ],
                "metallicFactor" : 0.949999988079071,
                "roughnessFactor" : 0.5
            }
        },
        {
            "doubleSided" : true,
            "emissiveFactor" : [
                0,
                0,
                0
            ],
            "name" : "Material",
            "pbrMetallicRoughness" : {
                "baseColorTexture" : {
                    "index" : 0,
                    "texCoord" : 0
                },
                "metallicFactor" : 0,
                "roughnessFactor" : 0.5
            }
        }
    ],
    "meshes" : [
        {
            "name" : "Circle",
            "primitives" : [
                {
                    "attributes" : {
                        "POSITION" : 0,
                        "NORMAL" : 1,
                        "TEXCOORD_0" : 2
                    },
                    "indices" : 3,
                    "material" : 0
                },
                {
                    "attributes" : {
                        "POSITION" : 4,
                        "NORMAL" : 5,
                        "TEXCOORD_0" : 6
                    },
                    "indices" : 7,
                    "material" : 1
                }
            ]
        }
    ],
    "textures" : [
        {
            "source" : 0
        }
    ],
    "images" : [
        {
            "mimeType" : "image/jpeg",
            "name" : "logomock",
            "uri" : "textures/logomock.jpg"
        }
    ],
    "accessors" : [
        {
            "bufferView" : 0,
            "componentType" : 5126,
            "count" : 928,
            "max" : [
                1,
                2.9873247146606445,
                1
            ],
            "min" : [
                -1,
                0,
                -1
            ],
            "type" : "VEC3"
        },
        {
            "bufferView" : 1,
            "componentType" : 5126,
            "count" : 928,
            "type" : "VEC3"
        },
        {
            "bufferView" : 2,
            "componentType" : 5126,
            "count" : 928,
            "type" : "VEC2"
        },
        {
            "bufferView" : 3,
            "componentType" : 5123,
            "count" : 5172,
            "type" : "SCALAR"
        },
        {
            "bufferView" : 4,
            "componentType" : 5126,
            "count" : 2632,
            "max" : [
                0.9658816456794739,
                2.848982810974121,
                0.9658815860748291
            ],
            "min" : [
                -0.9658816456794739,
                0.15904760360717773,
                -0.9658816456794739
            ],
            "type" : "VEC3"
        },
        {
            "bufferView" : 5,
            "componentType" : 5126,
            "count" : 2632,
            "type" : "VEC3"
        },
        {
            "bufferView" : 6,
            "componentType" : 5126,
            "count" : 2632,
            "type" : "VEC2"
        },
        {
            "bufferView" : 7,
            "componentType" : 5123,
            "count" : 7488,
            "type" : "SCALAR"
        }
    ],
    "bufferViews" : [
        {
            "buffer" : 0,
            "byteLength" : 11136,
            "byteOffset" : 0
        },
        {
            "buffer" : 0,
            "byteLength" : 11136,
            "byteOffset" : 11136
        },
        {
            "buffer" : 0,
            "byteLength" : 7424,
            "byteOffset" : 22272
        },
        {
            "buffer" : 0,
            "byteLength" : 10344,
            "byteOffset" : 29696
        },
        {
            "buffer" : 0,
            "byteLength" : 31584,
            "byteOffset" : 40040
        },
        {
            "buffer" : 0,
            "byteLength" : 31584,
            "byteOffset" : 71624
        },
        {
            "buffer" : 0,
            "byteLength" : 21056,
            "byteOffset" : 103208
        },
        {
            "buffer" : 0,
            "byteLength" : 14976,
            "byteOffset" : 124264
        }
    ],
    "buffers" : [
        {
            "byteLength" : 139240,
            "uri" : "canfood.bin"
        }
    ]
}
