{
    "asset" : {
        "generator" : "Khronos glTF Blender I/O v1.1.46",
        "version" : "2.0"
    },
    "scene" : 0,
    "scenes" : [
        {
            "name" : "Scene",
            "nodes" : [
                0,
                1
            ]
        }
    ],
    "nodes" : [
        {
            "mesh" : 0,
            "name" : "Circle",
            "scale" : [
                1,
                0.851128339767456,
                1
            ]
        },
        {
            "mesh" : 1,
            "name" : "Cube",
            "rotation" : [
                0,
                0.7071067690849304,
                0,
                0.7071067690849304
            ],
            "scale" : [
                0.3842349052429199,
                0.026775307953357697,
                0.3361280560493469
            ],
            "translation" : [
                0.019017577171325684,
                2.4930319786071777,
                -0.4186711609363556
            ]
        }
    ],
    "materials" : [
        {
            "doubleSided" : true,
            "emissiveFactor" : [
                0,
                0,
                0
            ],
            "name" : "Material.001",
            "pbrMetallicRoughness" : {
                "baseColorFactor" : [
                    0.800000011920929,
                    0.800000011920929,
                    0.800000011920929,
                    1
                ],
                "metallicFactor" : 0.949999988079071,
                "roughnessFactor" : 0.5
            }
        },
        {
            "doubleSided" : true,
            "emissiveFactor" : [
                0,
                0,
                0
            ],
            "name" : "Material",
            "pbrMetallicRoughness" : {
                "baseColorFactor" : [
                    1,
                    1,
                    1,
                    1
                ],
                "metallicFactor" : 0,
                "roughnessFactor" : 0.5
            }
        },
        {
            "doubleSided" : true,
            "emissiveFactor" : [
                0,
                0,
                0
            ],
            "name" : "Material.003",
            "pbrMetallicRoughness" : {
                "baseColorTexture" : {
                    "index" : 0,
                    "texCoord" : 0
                },
                "metallicFactor" : 0,
                "roughnessFactor" : 0.5
            }
        },
        {
            "doubleSided" : true,
            "emissiveFactor" : [
                0,
                0,
                0
            ],
            "name" : "Material.002",
            "pbrMetallicRoughness" : {
                "baseColorFactor" : [
                    0.5271969437599182,
                    0.5271969437599182,
                    0.5271969437599182,
                    1
                ],
                "metallicFactor" : 0.7659090757369995,
                "roughnessFactor" : 0.5
            }
        }
    ],
    "meshes" : [
        {
            "name" : "Circle",
            "primitives" : [
                {
                    "attributes" : {
                        "POSITION" : 0,
                        "NORMAL" : 1,
                        "TEXCOORD_0" : 2
                    },
                    "indices" : 3,
                    "material" : 0
                },
                {
                    "attributes" : {
                        "POSITION" : 4,
                        "NORMAL" : 5,
                        "TEXCOORD_0" : 6
                    },
                    "indices" : 7,
                    "material" : 1
                },
                {
                    "attributes" : {
                        "POSITION" : 8,
                        "NORMAL" : 9,
                        "TEXCOORD_0" : 10
                    },
                    "indices" : 11,
                    "material" : 2
                }
            ]
        },
        {
            "name" : "Cube.002",
            "primitives" : [
                {
                    "attributes" : {
                        "POSITION" : 12,
                        "NORMAL" : 13,
                        "TANGENT" : 14,
                        "TEXCOORD_0" : 15
                    },
                    "indices" : 16,
                    "material" : 3
                }
            ]
        }
    ],
    "textures" : [
        {
            "source" : 0
        }
    ],
    "images" : [
        {
            "mimeType" : "image/jpeg",
            "name" : "logomock",
            "uri" : "textures/logomock.jpg"
        }
    ],
    "accessors" : [
        {
            "bufferView" : 0,
            "componentType" : 5126,
            "count" : 928,
            "max" : [
                1,
                2.9873247146606445,
                1
            ],
            "min" : [
                -1,
                0,
                -1
            ],
            "type" : "VEC3"
        },
        {
            "bufferView" : 1,
            "componentType" : 5126,
            "count" : 928,
            "type" : "VEC3"
        },
        {
            "bufferView" : 2,
            "componentType" : 5126,
            "count" : 928,
            "type" : "VEC2"
        },
        {
            "bufferView" : 3,
            "componentType" : 5123,
            "count" : 5172,
            "type" : "SCALAR"
        },
        {
            "bufferView" : 4,
            "componentType" : 5126,
            "count" : 2454,
            "max" : [
                0.9658816456794739,
                2.848982810974121,
                0.9658815860748291
            ],
            "min" : [
                -0.9658816456794739,
                0.15904760360717773,
                -0.9658816456794739
            ],
            "type" : "VEC3"
        },
        {
            "bufferView" : 5,
            "componentType" : 5126,
            "count" : 2454,
            "type" : "VEC3"
        },
        {
            "bufferView" : 6,
            "componentType" : 5126,
            "count" : 2454,
            "type" : "VEC2"
        },
        {
            "bufferView" : 7,
            "componentType" : 5123,
            "count" : 6870,
            "type" : "SCALAR"
        },
        {
            "bufferView" : 8,
            "componentType" : 5126,
            "count" : 196,
            "max" : [
                0.5366140007972717,
                2.038055181503296,
                -0.803101122379303
            ],
            "min" : [
                -0.5366151332855225,
                1.174228310585022,
                -0.9658816456794739
            ],
            "type" : "VEC3"
        },
        {
            "bufferView" : 9,
            "componentType" : 5126,
            "count" : 196,
            "type" : "VEC3"
        },
        {
            "bufferView" : 10,
            "componentType" : 5126,
            "count" : 196,
            "type" : "VEC2"
        },
        {
            "bufferView" : 11,
            "componentType" : 5123,
            "count" : 618,
            "type" : "SCALAR"
        },
        {
            "bufferView" : 12,
            "componentType" : 5126,
            "count" : 6600,
            "max" : [
                1.0440703630447388,
                1.083077311515808,
                1.0794217586517334
            ],
            "min" : [
                -1.0358595848083496,
                -1.0830777883529663,
                -1.079421877861023
            ],
            "type" : "VEC3"
        },
        {
            "bufferView" : 13,
            "componentType" : 5126,
            "count" : 6600,
            "type" : "VEC3"
        },
        {
            "bufferView" : 14,
            "componentType" : 5126,
            "count" : 6600,
            "type" : "VEC4"
        },
        {
            "bufferView" : 15,
            "componentType" : 5126,
            "count" : 6600,
            "type" : "VEC2"
        },
        {
            "bufferView" : 16,
            "componentType" : 5123,
            "count" : 34368,
            "type" : "SCALAR"
        }
    ],
    "bufferViews" : [
        {
            "buffer" : 0,
            "byteLength" : 11136,
            "byteOffset" : 0
        },
        {
            "buffer" : 0,
            "byteLength" : 11136,
            "byteOffset" : 11136
        },
        {
            "buffer" : 0,
            "byteLength" : 7424,
            "byteOffset" : 22272
        },
        {
            "buffer" : 0,
            "byteLength" : 10344,
            "byteOffset" : 29696
        },
        {
            "buffer" : 0,
            "byteLength" : 29448,
            "byteOffset" : 40040
        },
        {
            "buffer" : 0,
            "byteLength" : 29448,
            "byteOffset" : 69488
        },
        {
            "buffer" : 0,
            "byteLength" : 19632,
            "byteOffset" : 98936
        },
        {
            "buffer" : 0,
            "byteLength" : 13740,
            "byteOffset" : 118568
        },
        {
            "buffer" : 0,
            "byteLength" : 2352,
            "byteOffset" : 132308
        },
        {
            "buffer" : 0,
            "byteLength" : 2352,
            "byteOffset" : 134660
        },
        {
            "buffer" : 0,
            "byteLength" : 1568,
            "byteOffset" : 137012
        },
        {
            "buffer" : 0,
            "byteLength" : 1236,
            "byteOffset" : 138580
        },
        {
            "buffer" : 0,
            "byteLength" : 79200,
            "byteOffset" : 139816
        },
        {
            "buffer" : 0,
            "byteLength" : 79200,
            "byteOffset" : 219016
        },
        {
            "buffer" : 0,
            "byteLength" : 105600,
            "byteOffset" : 298216
        },
        {
            "buffer" : 0,
            "byteLength" : 52800,
            "byteOffset" : 403816
        },
        {
            "buffer" : 0,
            "byteLength" : 68736,
            "byteOffset" : 456616
        }
    ],
    "buffers" : [
        {
            "byteLength" : 525352,
            "uri" : "canfood.bin"
        }
    ]
}
