{
    "asset" : {
        "generator" : "Khronos glTF Blender I/O v1.1.46",
        "version" : "2.0"
    },
    "scene" : 0,
    "scenes" : [
        {
            "name" : "Scene",
            "nodes" : [
                0
            ]
        }
    ],
    "nodes" : [
        {
            "mesh" : 0,
            "name" : "Circle",
            "translation" : [
                0.12757253646850586,
                -0.033476635813713074,
                -0.007876074872910976
            ]
        }
    ],
    "materials" : [
        {
            "doubleSided" : true,
            "emissiveFactor" : [
                0,
                0,
                0
            ],
            "name" : "Material.001",
            "pbrMetallicRoughness" : {
                "baseColorFactor" : [
                    1,
                    1,
                    1,
                    1
                ],
                "metallicFactor" : 0,
                "roughnessFactor" : 0.5
            }
        },
        {
            "doubleSided" : true,
            "emissiveFactor" : [
                0,
                0,
                0
            ],
            "name" : "Material",
            "pbrMetallicRoughness" : {
                "baseColorTexture" : {
                    "index" : 0,
                    "texCoord" : 0
                },
                "metallicFactor" : 0,
                "roughnessFactor" : 0.5
            }
        }
    ],
    "meshes" : [
        {
            "name" : "Circle",
            "primitives" : [
                {
                    "attributes" : {
                        "POSITION" : 0,
                        "NORMAL" : 1,
                        "TEXCOORD_0" : 2
                    },
                    "indices" : 3,
                    "material" : 0
                },
                {
                    "attributes" : {
                        "POSITION" : 4,
                        "NORMAL" : 5,
                        "TEXCOORD_0" : 6
                    },
                    "indices" : 7,
                    "material" : 1
                }
            ]
        }
    ],
    "textures" : [
        {
            "source" : 0
        }
    ],
    "images" : [
        {
            "mimeType" : "image/jpeg",
            "name" : "logomock",
            "uri" : "textures/logomock.jpg"
        }
    ],
    "accessors" : [
        {
            "bufferView" : 0,
            "componentType" : 5126,
            "count" : 24931,
            "max" : [
                0.9932861924171448,
                1.4036871194839478,
                0.9932633638381958
            ],
            "min" : [
                -1.0009231567382812,
                0.0001852113928180188,
                -0.9931008219718933
            ],
            "type" : "VEC3"
        },
        {
            "bufferView" : 1,
            "componentType" : 5126,
            "count" : 24931,
            "type" : "VEC3"
        },
        {
            "bufferView" : 2,
            "componentType" : 5126,
            "count" : 24931,
            "type" : "VEC2"
        },
        {
            "bufferView" : 3,
            "componentType" : 5123,
            "count" : 145704,
            "type" : "SCALAR"
        },
        {
            "bufferView" : 4,
            "componentType" : 5126,
            "count" : 72,
            "max" : [
                0.5505808591842651,
                0.8187389969825745,
                -0.8260658979415894
            ],
            "min" : [
                -0.2867158055305481,
                0.23209305107593536,
                -0.9932861924171448
            ],
            "type" : "VEC3"
        },
        {
            "bufferView" : 5,
            "componentType" : 5126,
            "count" : 72,
            "type" : "VEC3"
        },
        {
            "bufferView" : 6,
            "componentType" : 5126,
            "count" : 72,
            "type" : "VEC2"
        },
        {
            "bufferView" : 7,
            "componentType" : 5123,
            "count" : 246,
            "type" : "SCALAR"
        }
    ],
    "bufferViews" : [
        {
            "buffer" : 0,
            "byteLength" : 299172,
            "byteOffset" : 0
        },
        {
            "buffer" : 0,
            "byteLength" : 299172,
            "byteOffset" : 299172
        },
        {
            "buffer" : 0,
            "byteLength" : 199448,
            "byteOffset" : 598344
        },
        {
            "buffer" : 0,
            "byteLength" : 291408,
            "byteOffset" : 797792
        },
        {
            "buffer" : 0,
            "byteLength" : 864,
            "byteOffset" : 1089200
        },
        {
            "buffer" : 0,
            "byteLength" : 864,
            "byteOffset" : 1090064
        },
        {
            "buffer" : 0,
            "byteLength" : 576,
            "byteOffset" : 1090928
        },
        {
            "buffer" : 0,
            "byteLength" : 492,
            "byteOffset" : 1091504
        }
    ],
    "buffers" : [
        {
            "byteLength" : 1091996,
            "uri" : "creamkapook.bin"
        }
    ]
}
