{
    "asset" : {
        "generator" : "Khronos glTF Blender I/O v1.1.46",
        "version" : "2.0"
    },
    "scene" : 0,
    "scenes" : [
        {
            "name" : "Scene",
            "nodes" : [
                0
            ]
        }
    ],
    "nodes" : [
        {
            "mesh" : 0,
            "name" : "Circle",
            "translation" : [
                0.12757253646850586,
                -0.033476635813713074,
                -0.007876074872910976
            ]
        }
    ],
    "materials" : [
        {
            "doubleSided" : true,
            "emissiveFactor" : [
                0,
                0,
                0
            ],
            "name" : "Material.002",
            "pbrMetallicRoughness" : {
                "baseColorFactor" : [
                    1,
                    1,
                    1,
                    1
                ],
                "metallicFactor" : 0,
                "roughnessFactor" : 0.5
            }
        },
        {
            "doubleSided" : true,
            "name" : "Material.003",
            "pbrMetallicRoughness" : {}
        },
        {
            "doubleSided" : true,
            "emissiveFactor" : [
                0,
                0,
                0
            ],
            "name" : "Material",
            "pbrMetallicRoughness" : {
                "baseColorTexture" : {
                    "index" : 0,
                    "texCoord" : 0
                },
                "metallicFactor" : 0,
                "roughnessFactor" : 0.5
            }
        }
    ],
    "meshes" : [
        {
            "name" : "Circle",
            "primitives" : [
                {
                    "attributes" : {
                        "POSITION" : 0,
                        "NORMAL" : 1,
                        "TEXCOORD_0" : 2
                    },
                    "indices" : 3,
                    "material" : 0
                },
                {
                    "attributes" : {
                        "POSITION" : 4,
                        "NORMAL" : 5,
                        "TEXCOORD_0" : 6
                    },
                    "indices" : 7,
                    "material" : 1
                },
                {
                    "attributes" : {
                        "POSITION" : 8,
                        "NORMAL" : 9,
                        "TEXCOORD_0" : 10
                    },
                    "indices" : 11,
                    "material" : 2
                }
            ]
        }
    ],
    "textures" : [
        {
            "source" : 0
        }
    ],
    "images" : [
        {
            "mimeType" : "image/jpeg",
            "name" : "logomock",
            "uri" : "textures/logomock.jpg"
        }
    ],
    "accessors" : [
        {
            "bufferView" : 0,
            "componentType" : 5126,
            "count" : 24883,
            "max" : [
                0.9932861924171448,
                1.4036871194839478,
                0.9932633638381958
            ],
            "min" : [
                -1.0009231567382812,
                0.0001852113928180188,
                -0.9932861924171448
            ],
            "type" : "VEC3"
        },
        {
            "bufferView" : 1,
            "componentType" : 5126,
            "count" : 24883,
            "type" : "VEC3"
        },
        {
            "bufferView" : 2,
            "componentType" : 5126,
            "count" : 24883,
            "type" : "VEC2"
        },
        {
            "bufferView" : 3,
            "componentType" : 5123,
            "count" : 145722,
            "type" : "SCALAR"
        },
        {
            "bufferView" : 4,
            "componentType" : 5126,
            "count" : 70,
            "max" : [
                0.6292557716369629,
                0.8187389969825745,
                0.9932622909545898
            ],
            "min" : [
                0.0012991013936698437,
                0.23157572746276855,
                0.7683830261230469
            ],
            "type" : "VEC3"
        },
        {
            "bufferView" : 5,
            "componentType" : 5126,
            "count" : 70,
            "type" : "VEC3"
        },
        {
            "bufferView" : 6,
            "componentType" : 5126,
            "count" : 70,
            "type" : "VEC2"
        },
        {
            "bufferView" : 7,
            "componentType" : 5123,
            "count" : 144,
            "type" : "SCALAR"
        },
        {
            "bufferView" : 8,
            "componentType" : 5126,
            "count" : 56,
            "max" : [
                0.6307190656661987,
                0.8187389969825745,
                0.9932622909545898
            ],
            "min" : [
                -0.0001355545100523159,
                0.23157572746276855,
                0.7651357650756836
            ],
            "type" : "VEC3"
        },
        {
            "bufferView" : 9,
            "componentType" : 5126,
            "count" : 56,
            "type" : "VEC3"
        },
        {
            "bufferView" : 10,
            "componentType" : 5126,
            "count" : 56,
            "type" : "VEC2"
        },
        {
            "bufferView" : 11,
            "componentType" : 5123,
            "count" : 84,
            "type" : "SCALAR"
        }
    ],
    "bufferViews" : [
        {
            "buffer" : 0,
            "byteLength" : 298596,
            "byteOffset" : 0
        },
        {
            "buffer" : 0,
            "byteLength" : 298596,
            "byteOffset" : 298596
        },
        {
            "buffer" : 0,
            "byteLength" : 199064,
            "byteOffset" : 597192
        },
        {
            "buffer" : 0,
            "byteLength" : 291444,
            "byteOffset" : 796256
        },
        {
            "buffer" : 0,
            "byteLength" : 840,
            "byteOffset" : 1087700
        },
        {
            "buffer" : 0,
            "byteLength" : 840,
            "byteOffset" : 1088540
        },
        {
            "buffer" : 0,
            "byteLength" : 560,
            "byteOffset" : 1089380
        },
        {
            "buffer" : 0,
            "byteLength" : 288,
            "byteOffset" : 1089940
        },
        {
            "buffer" : 0,
            "byteLength" : 672,
            "byteOffset" : 1090228
        },
        {
            "buffer" : 0,
            "byteLength" : 672,
            "byteOffset" : 1090900
        },
        {
            "buffer" : 0,
            "byteLength" : 448,
            "byteOffset" : 1091572
        },
        {
            "buffer" : 0,
            "byteLength" : 168,
            "byteOffset" : 1092020
        }
    ],
    "buffers" : [
        {
            "byteLength" : 1092188,
            "uri" : "creamkapook.bin"
        }
    ]
}
