{
    "asset" : {
        "generator" : "Khronos glTF Blender I/O v1.1.46",
        "version" : "2.0"
    },
    "scene" : 0,
    "scenes" : [
        {
            "name" : "Scene",
            "nodes" : [
                0
            ]
        }
    ],
    "nodes" : [
        {
            "mesh" : 0,
            "name" : "Circle",
            "translation" : [
                0.12757253646850586,
                -0.033476635813713074,
                -0.007876074872910976
            ]
        }
    ],
    "materials" : [
        {
            "doubleSided" : true,
            "emissiveFactor" : [
                0,
                0,
                0
            ],
            "name" : "Material.001",
            "pbrMetallicRoughness" : {
                "baseColorFactor" : [
                    1,
                    1,
                    1,
                    1
                ],
                "metallicFactor" : 0,
                "roughnessFactor" : 0.5
            }
        },
        {
            "doubleSided" : true,
            "emissiveFactor" : [
                0,
                0,
                0
            ],
            "name" : "Material.007",
            "pbrMetallicRoughness" : {
                "baseColorTexture" : {
                    "index" : 0,
                    "texCoord" : 0
                },
                "metallicFactor" : 0,
                "roughnessFactor" : 0.5
            }
        }
    ],
    "meshes" : [
        {
            "name" : "Circle",
            "primitives" : [
                {
                    "attributes" : {
                        "POSITION" : 0,
                        "TEXCOORD_0" : 1
                    },
                    "indices" : 2,
                    "material" : 0
                },
                {
                    "attributes" : {
                        "POSITION" : 3,
                        "TEXCOORD_0" : 4
                    },
                    "indices" : 5,
                    "material" : 1
                }
            ]
        }
    ],
    "textures" : [
        {
            "source" : 0
        }
    ],
    "images" : [
        {
            "mimeType" : "image/jpeg",
            "name" : "logomock",
            "uri" : "textures/logomock.jpg"
        }
    ],
    "accessors" : [
        {
            "bufferView" : 0,
            "componentType" : 5126,
            "count" : 24927,
            "max" : [
                0.9932861924171448,
                1.4036871194839478,
                0.9932633638381958
            ],
            "min" : [
                -1.0009231567382812,
                0.0001852113928180188,
                -0.9931008219718933
            ],
            "type" : "VEC3"
        },
        {
            "bufferView" : 1,
            "componentType" : 5126,
            "count" : 24927,
            "type" : "VEC2"
        },
        {
            "bufferView" : 2,
            "componentType" : 5123,
            "count" : 145788,
            "type" : "SCALAR"
        },
        {
            "bufferView" : 3,
            "componentType" : 5126,
            "count" : 40,
            "max" : [
                0.3787146806716919,
                0.8187389969825745,
                -0.9175199270248413
            ],
            "min" : [
                -0.09582691639661789,
                0.23528891801834106,
                -0.9932861924171448
            ],
            "type" : "VEC3"
        },
        {
            "bufferView" : 4,
            "componentType" : 5126,
            "count" : 40,
            "type" : "VEC2"
        },
        {
            "bufferView" : 5,
            "componentType" : 5123,
            "count" : 162,
            "type" : "SCALAR"
        }
    ],
    "bufferViews" : [
        {
            "buffer" : 0,
            "byteLength" : 299124,
            "byteOffset" : 0
        },
        {
            "buffer" : 0,
            "byteLength" : 199416,
            "byteOffset" : 299124
        },
        {
            "buffer" : 0,
            "byteLength" : 291576,
            "byteOffset" : 498540
        },
        {
            "buffer" : 0,
            "byteLength" : 480,
            "byteOffset" : 790116
        },
        {
            "buffer" : 0,
            "byteLength" : 320,
            "byteOffset" : 790596
        },
        {
            "buffer" : 0,
            "byteLength" : 324,
            "byteOffset" : 790916
        }
    ],
    "buffers" : [
        {
            "byteLength" : 791240,
            "uri" : "creamkapook.bin"
        }
    ]
}
