{
    "asset" : {
        "generator" : "Khronos glTF Blender I/O v1.1.46",
        "version" : "2.0"
    },
    "scene" : 0,
    "scenes" : [
        {
            "extras" : {
                "glTF2ExportSettings" : {
                    "export_apply" : 1,
                    "export_current_frame" : 1,
                    "export_extras" : 1,
                    "export_format" : "GLTF_SEPARATE",
                    "export_image_format" : "JPEG",
                    "export_selected" : 1,
                    "export_tangents" : 1,
                    "export_texture_dir" : "textures"
                }
            },
            "name" : "Scene",
            "nodes" : [
                0
            ]
        }
    ],
    "nodes" : [
        {
            "mesh" : 0,
            "name" : "Plane",
            "rotation" : [
                0.4806145429611206,
                -0.08621084690093994,
                0.07622929662466049,
                0.8693482875823975
            ],
            "scale" : [
                0.9613738656044006,
                1.3209506273269653,
                1.3209508657455444
            ],
            "translation" : [
                -0.19159692525863647,
                0.9720213413238525,
                -0.010576725006103516
            ]
        }
    ],
    "materials" : [
        {
            "doubleSided" : true,
            "emissiveFactor" : [
                0,
                0,
                0
            ],
            "name" : "Material",
            "pbrMetallicRoughness" : {
                "baseColorFactor" : [
                    1,
                    1,
                    1,
                    1
                ],
                "metallicFactor" : 0,
                "roughnessFactor" : 0.5
            }
        },
        {
            "doubleSided" : true,
            "emissiveFactor" : [
                0,
                0,
                0
            ],
            "name" : "Material.004",
            "pbrMetallicRoughness" : {
                "baseColorTexture" : {
                    "index" : 0,
                    "texCoord" : 0
                },
                "metallicFactor" : 0,
                "roughnessFactor" : 0.5
            }
        }
    ],
    "meshes" : [
        {
            "name" : "Plane",
            "primitives" : [
                {
                    "attributes" : {
                        "POSITION" : 0,
                        "NORMAL" : 1,
                        "TANGENT" : 2,
                        "TEXCOORD_0" : 3
                    },
                    "indices" : 4,
                    "material" : 0
                },
                {
                    "attributes" : {
                        "POSITION" : 5,
                        "NORMAL" : 6,
                        "TANGENT" : 7,
                        "TEXCOORD_0" : 8
                    },
                    "indices" : 9,
                    "material" : 1
                }
            ]
        }
    ],
    "textures" : [
        {
            "source" : 0
        }
    ],
    "images" : [
        {
            "mimeType" : "image/jpeg",
            "name" : "logomock",
            "uri" : "textures/logomock.jpg"
        }
    ],
    "accessors" : [
        {
            "bufferView" : 0,
            "componentType" : 5126,
            "count" : 1328640,
            "max" : [
                0.926931619644165,
                0.4927923083305359,
                0.9813385009765625
            ],
            "min" : [
                -0.9405728578567505,
                0.013059252873063087,
                -0.9846507906913757
            ],
            "type" : "VEC3"
        },
        {
            "bufferView" : 1,
            "componentType" : 5126,
            "count" : 1328640,
            "type" : "VEC3"
        },
        {
            "bufferView" : 2,
            "componentType" : 5126,
            "count" : 1328640,
            "type" : "VEC4"
        },
        {
            "bufferView" : 3,
            "componentType" : 5126,
            "count" : 1328640,
            "type" : "VEC2"
        },
        {
            "bufferView" : 4,
            "componentType" : 5125,
            "count" : 1992960,
            "type" : "SCALAR"
        },
        {
            "bufferView" : 5,
            "componentType" : 5126,
            "count" : 55296,
            "max" : [
                0.4049868881702423,
                0.4956565797328949,
                0.17515672743320465
            ],
            "min" : [
                -0.2970220148563385,
                0.4529957175254822,
                -0.29596835374832153
            ],
            "type" : "VEC3"
        },
        {
            "bufferView" : 6,
            "componentType" : 5126,
            "count" : 55296,
            "type" : "VEC3"
        },
        {
            "bufferView" : 7,
            "componentType" : 5126,
            "count" : 55296,
            "type" : "VEC4"
        },
        {
            "bufferView" : 8,
            "componentType" : 5126,
            "count" : 55296,
            "type" : "VEC2"
        },
        {
            "bufferView" : 9,
            "componentType" : 5123,
            "count" : 82944,
            "type" : "SCALAR"
        }
    ],
    "bufferViews" : [
        {
            "buffer" : 0,
            "byteLength" : 15943680,
            "byteOffset" : 0
        },
        {
            "buffer" : 0,
            "byteLength" : 15943680,
            "byteOffset" : 15943680
        },
        {
            "buffer" : 0,
            "byteLength" : 21258240,
            "byteOffset" : 31887360
        },
        {
            "buffer" : 0,
            "byteLength" : 10629120,
            "byteOffset" : 53145600
        },
        {
            "buffer" : 0,
            "byteLength" : 7971840,
            "byteOffset" : 63774720
        },
        {
            "buffer" : 0,
            "byteLength" : 663552,
            "byteOffset" : 71746560
        },
        {
            "buffer" : 0,
            "byteLength" : 663552,
            "byteOffset" : 72410112
        },
        {
            "buffer" : 0,
            "byteLength" : 884736,
            "byteOffset" : 73073664
        },
        {
            "buffer" : 0,
            "byteLength" : 442368,
            "byteOffset" : 73958400
        },
        {
            "buffer" : 0,
            "byteLength" : 165888,
            "byteOffset" : 74400768
        }
    ],
    "buffers" : [
        {
            "byteLength" : 74566656,
            "uri" : "chips.bin"
        }
    ]
}
