{
    "asset" : {
        "generator" : "Khronos glTF Blender I/O v1.1.46",
        "version" : "2.0"
    },
    "scene" : 0,
    "scenes" : [
        {
            "name" : "Scene",
            "nodes" : [
                0
            ]
        }
    ],
    "nodes" : [
        {
            "mesh" : 0,
            "name" : "Cylinder",
            "scale" : [
                0.6018548607826233,
                1.0605133771896362,
                0.6352725028991699
            ],
            "translation" : [
                0,
                1.3138177394866943,
                0
            ]
        }
    ],
    "materials" : [
        {
            "doubleSided" : true,
            "name" : "Material.002",
            "pbrMetallicRoughness" : {}
        },
        {
            "doubleSided" : true,
            "emissiveFactor" : [
                0,
                0,
                0
            ],
            "name" : "Material.001",
            "pbrMetallicRoughness" : {
                "baseColorFactor" : [
                    1,
                    1,
                    1,
                    1
                ],
                "metallicFactor" : 0,
                "roughnessFactor" : 0.5
            }
        },
        {
            "doubleSided" : true,
            "emissiveFactor" : [
                0,
                0,
                0
            ],
            "name" : "Material",
            "pbrMetallicRoughness" : {
                "baseColorTexture" : {
                    "index" : 0,
                    "texCoord" : 0
                },
                "metallicFactor" : 0,
                "roughnessFactor" : 0.5
            }
        }
    ],
    "meshes" : [
        {
            "name" : "Cylinder",
            "primitives" : [
                {
                    "attributes" : {
                        "POSITION" : 0,
                        "NORMAL" : 1,
                        "TANGENT" : 2,
                        "TEXCOORD_0" : 3
                    },
                    "indices" : 4,
                    "material" : 0
                },
                {
                    "attributes" : {
                        "POSITION" : 5,
                        "NORMAL" : 6,
                        "TANGENT" : 7,
                        "TEXCOORD_0" : 8
                    },
                    "indices" : 9,
                    "material" : 1
                },
                {
                    "attributes" : {
                        "POSITION" : 10,
                        "NORMAL" : 11,
                        "TANGENT" : 12,
                        "TEXCOORD_0" : 13
                    },
                    "indices" : 14,
                    "material" : 2
                }
            ]
        }
    ],
    "textures" : [
        {
            "source" : 0
        }
    ],
    "images" : [
        {
            "mimeType" : "image/jpeg",
            "name" : "logomock",
            "uri" : "textures/logomock.jpg"
        }
    ],
    "accessors" : [
        {
            "bufferView" : 0,
            "componentType" : 5126,
            "count" : 10880,
            "max" : [
                0.8615592122077942,
                2.4792933464050293,
                0.861559271812439
            ],
            "min" : [
                -0.8615590929985046,
                -1.1613682508468628,
                -0.8615593314170837
            ],
            "type" : "VEC3"
        },
        {
            "bufferView" : 1,
            "componentType" : 5126,
            "count" : 10880,
            "type" : "VEC3"
        },
        {
            "bufferView" : 2,
            "componentType" : 5126,
            "count" : 10880,
            "type" : "VEC4"
        },
        {
            "bufferView" : 3,
            "componentType" : 5126,
            "count" : 10880,
            "type" : "VEC2"
        },
        {
            "bufferView" : 4,
            "componentType" : 5123,
            "count" : 16320,
            "type" : "SCALAR"
        },
        {
            "bufferView" : 5,
            "componentType" : 5126,
            "count" : 1456,
            "max" : [
                0.8615592122077942,
                0.6032196283340454,
                0.861559271812439
            ],
            "min" : [
                -0.8615591526031494,
                -0.851374089717865,
                -0.8615593314170837
            ],
            "type" : "VEC3"
        },
        {
            "bufferView" : 6,
            "componentType" : 5126,
            "count" : 1456,
            "type" : "VEC3"
        },
        {
            "bufferView" : 7,
            "componentType" : 5126,
            "count" : 1456,
            "type" : "VEC4"
        },
        {
            "bufferView" : 8,
            "componentType" : 5126,
            "count" : 1456,
            "type" : "VEC2"
        },
        {
            "bufferView" : 9,
            "componentType" : 5123,
            "count" : 2184,
            "type" : "SCALAR"
        },
        {
            "bufferView" : 10,
            "componentType" : 5126,
            "count" : 80,
            "max" : [
                0.4786566197872162,
                0.1291067749261856,
                0.8615592122077942
            ],
            "min" : [
                -0.32970473170280457,
                -0.39805281162261963,
                0.716360330581665
            ],
            "type" : "VEC3"
        },
        {
            "bufferView" : 11,
            "componentType" : 5126,
            "count" : 80,
            "type" : "VEC3"
        },
        {
            "bufferView" : 12,
            "componentType" : 5126,
            "count" : 80,
            "type" : "VEC4"
        },
        {
            "bufferView" : 13,
            "componentType" : 5126,
            "count" : 80,
            "type" : "VEC2"
        },
        {
            "bufferView" : 14,
            "componentType" : 5123,
            "count" : 120,
            "type" : "SCALAR"
        }
    ],
    "bufferViews" : [
        {
            "buffer" : 0,
            "byteLength" : 130560,
            "byteOffset" : 0
        },
        {
            "buffer" : 0,
            "byteLength" : 130560,
            "byteOffset" : 130560
        },
        {
            "buffer" : 0,
            "byteLength" : 174080,
            "byteOffset" : 261120
        },
        {
            "buffer" : 0,
            "byteLength" : 87040,
            "byteOffset" : 435200
        },
        {
            "buffer" : 0,
            "byteLength" : 32640,
            "byteOffset" : 522240
        },
        {
            "buffer" : 0,
            "byteLength" : 17472,
            "byteOffset" : 554880
        },
        {
            "buffer" : 0,
            "byteLength" : 17472,
            "byteOffset" : 572352
        },
        {
            "buffer" : 0,
            "byteLength" : 23296,
            "byteOffset" : 589824
        },
        {
            "buffer" : 0,
            "byteLength" : 11648,
            "byteOffset" : 613120
        },
        {
            "buffer" : 0,
            "byteLength" : 4368,
            "byteOffset" : 624768
        },
        {
            "buffer" : 0,
            "byteLength" : 960,
            "byteOffset" : 629136
        },
        {
            "buffer" : 0,
            "byteLength" : 960,
            "byteOffset" : 630096
        },
        {
            "buffer" : 0,
            "byteLength" : 1280,
            "byteOffset" : 631056
        },
        {
            "buffer" : 0,
            "byteLength" : 640,
            "byteOffset" : 632336
        },
        {
            "buffer" : 0,
            "byteLength" : 240,
            "byteOffset" : 632976
        }
    ],
    "buffers" : [
        {
            "byteLength" : 633216,
            "uri" : "bottle.bin"
        }
    ]
}
