{
    "asset" : {
        "generator" : "Khronos glTF Blender I/O v1.1.46",
        "version" : "2.0"
    },
    "scene" : 0,
    "scenes" : [
        {
            "extras" : {
                "glTF2ExportSettings" : {
                    "export_apply" : 1,
                    "export_extras" : 1,
                    "export_format" : "GLTF_SEPARATE",
                    "export_selected" : 1,
                    "export_tangents" : 1,
                    "export_texture_dir" : "textures"
                }
            },
            "name" : "Scene",
            "nodes" : [
                0,
                1
            ]
        }
    ],
    "nodes" : [
        {
            "mesh" : 0,
            "name" : "Circle.002",
            "scale" : [
                0.9454036951065063,
                0.9454036951065063,
                0.9454036951065063
            ],
            "translation" : [
                0.05368518829345703,
                -0.0038927914574742317,
                -0.007876073010265827
            ]
        },
        {
            "mesh" : 1,
            "name" : "Circle.004",
            "scale" : [
                0.4298839271068573,
                0.3016667366027832,
                0.4298839271068573
            ],
            "translation" : [
                0.05083894729614258,
                0.24528329074382782,
                0
            ]
        }
    ],
    "materials" : [
        {
            "doubleSided" : true,
            "emissiveFactor" : [
                0,
                0,
                0
            ],
            "name" : "Material.001",
            "pbrMetallicRoughness" : {
                "baseColorFactor" : [
                    0.04158012941479683,
                    0,
                    0.8000000715255737,
                    1
                ],
                "metallicFactor" : 0,
                "roughnessFactor" : 0.5
            }
        },
        {
            "doubleSided" : true,
            "emissiveFactor" : [
                0,
                0,
                0
            ],
            "name" : "Material.003",
            "pbrMetallicRoughness" : {
                "baseColorFactor" : [
                    1,
                    1,
                    1,
                    1
                ],
                "metallicFactor" : 0,
                "roughnessFactor" : 0.5
            }
        },
        {
            "doubleSided" : true,
            "emissiveFactor" : [
                0,
                0,
                0
            ],
            "name" : "Material.004",
            "pbrMetallicRoughness" : {
                "baseColorTexture" : {
                    "index" : 0,
                    "texCoord" : 0
                },
                "metallicFactor" : 0,
                "roughnessFactor" : 0.5
            }
        }
    ],
    "meshes" : [
        {
            "name" : "Circle.002",
            "primitives" : [
                {
                    "attributes" : {
                        "POSITION" : 0,
                        "NORMAL" : 1,
                        "TEXCOORD_0" : 2
                    },
                    "indices" : 3,
                    "material" : 0
                }
            ]
        },
        {
            "name" : "Circle.004",
            "primitives" : [
                {
                    "attributes" : {
                        "POSITION" : 4,
                        "NORMAL" : 5,
                        "TANGENT" : 6,
                        "TEXCOORD_0" : 7
                    },
                    "indices" : 8,
                    "material" : 1
                },
                {
                    "attributes" : {
                        "POSITION" : 9,
                        "NORMAL" : 10,
                        "TANGENT" : 11,
                        "TEXCOORD_0" : 12
                    },
                    "indices" : 13,
                    "material" : 2
                }
            ]
        }
    ],
    "textures" : [
        {
            "source" : 0
        }
    ],
    "images" : [
        {
            "mimeType" : "image/jpeg",
            "name" : "logomock",
            "uri" : "textures/logomock.jpg"
        }
    ],
    "accessors" : [
        {
            "bufferView" : 0,
            "componentType" : 5126,
            "count" : 992,
            "max" : [
                0.3877215087413788,
                0.20000000298023224,
                0.38566073775291443
            ],
            "min" : [
                -0.3836003839969635,
                1.2365138912784346e-09,
                -0.3856610655784607
            ],
            "type" : "VEC3"
        },
        {
            "bufferView" : 1,
            "componentType" : 5126,
            "count" : 992,
            "type" : "VEC3"
        },
        {
            "bufferView" : 2,
            "componentType" : 5126,
            "count" : 992,
            "type" : "VEC2"
        },
        {
            "bufferView" : 3,
            "componentType" : 5123,
            "count" : 1620,
            "type" : "SCALAR"
        },
        {
            "bufferView" : 4,
            "componentType" : 5126,
            "count" : 59326,
            "max" : [
                1.3816865682601929,
                7.264296054840088,
                0.8398380279541016
            ],
            "min" : [
                -1.381685733795166,
                -0.19541479647159576,
                -0.8399558663368225
            ],
            "type" : "VEC3"
        },
        {
            "bufferView" : 5,
            "componentType" : 5126,
            "count" : 59326,
            "type" : "VEC3"
        },
        {
            "bufferView" : 6,
            "componentType" : 5126,
            "count" : 59326,
            "type" : "VEC4"
        },
        {
            "bufferView" : 7,
            "componentType" : 5126,
            "count" : 59326,
            "type" : "VEC2"
        },
        {
            "bufferView" : 8,
            "componentType" : 5123,
            "count" : 89088,
            "type" : "SCALAR"
        },
        {
            "bufferView" : 9,
            "componentType" : 5126,
            "count" : 2048,
            "max" : [
                0.537504255771637,
                4.509060382843018,
                0.605275571346283
            ],
            "min" : [
                -0.5375040769577026,
                2.411865472793579,
                0.30208271741867065
            ],
            "type" : "VEC3"
        },
        {
            "bufferView" : 10,
            "componentType" : 5126,
            "count" : 2048,
            "type" : "VEC3"
        },
        {
            "bufferView" : 11,
            "componentType" : 5126,
            "count" : 2048,
            "type" : "VEC4"
        },
        {
            "bufferView" : 12,
            "componentType" : 5126,
            "count" : 2048,
            "type" : "VEC2"
        },
        {
            "bufferView" : 13,
            "componentType" : 5123,
            "count" : 3072,
            "type" : "SCALAR"
        }
    ],
    "bufferViews" : [
        {
            "buffer" : 0,
            "byteLength" : 11904,
            "byteOffset" : 0
        },
        {
            "buffer" : 0,
            "byteLength" : 11904,
            "byteOffset" : 11904
        },
        {
            "buffer" : 0,
            "byteLength" : 7936,
            "byteOffset" : 23808
        },
        {
            "buffer" : 0,
            "byteLength" : 3240,
            "byteOffset" : 31744
        },
        {
            "buffer" : 0,
            "byteLength" : 711912,
            "byteOffset" : 34984
        },
        {
            "buffer" : 0,
            "byteLength" : 711912,
            "byteOffset" : 746896
        },
        {
            "buffer" : 0,
            "byteLength" : 949216,
            "byteOffset" : 1458808
        },
        {
            "buffer" : 0,
            "byteLength" : 474608,
            "byteOffset" : 2408024
        },
        {
            "buffer" : 0,
            "byteLength" : 178176,
            "byteOffset" : 2882632
        },
        {
            "buffer" : 0,
            "byteLength" : 24576,
            "byteOffset" : 3060808
        },
        {
            "buffer" : 0,
            "byteLength" : 24576,
            "byteOffset" : 3085384
        },
        {
            "buffer" : 0,
            "byteLength" : 32768,
            "byteOffset" : 3109960
        },
        {
            "buffer" : 0,
            "byteLength" : 16384,
            "byteOffset" : 3142728
        },
        {
            "buffer" : 0,
            "byteLength" : 6144,
            "byteOffset" : 3159112
        }
    ],
    "buffers" : [
        {
            "byteLength" : 3165256,
            "uri" : "lotion.bin"
        }
    ]
}
